    <svg class="sprite" xmlns="http://www.w3.org/2000/svg">
      <symbol id="minimal-logo" viewBox="0 0 86 35" fill="black" xmlns="http://www.w3.org/2000/svg">
        <path d="M4.54732 26.3186C4.54732 22.8186 4.24733 19.4186 4.14733 15.9186C4.14733 15.6186 4.14733 15.2186 4.14733 14.9186C4.14733 15.0186 4.24732 15.1186 4.24732 15.3186C4.74732 16.7186 5.34732 18.0186 6.04732 19.2186C6.74732 20.4186 7.14732 21.8186 7.54732 23.1186C7.34732 23.3186 7.24733 23.5186 7.34733 23.7186C7.34733 23.9186 7.44732 23.9186 7.54732 24.0186C8.04732 24.5186 9.04733 24.2186 9.64733 24.0186C9.84733 23.9186 10.1473 23.8186 10.3473 23.6186C10.6473 23.4186 11.0473 23.0186 10.9473 22.6186C10.9473 22.5186 10.9473 22.4186 10.8473 22.4186C11.2473 21.3186 11.4473 20.2186 11.6473 19.1186C11.8473 17.9186 12.3473 16.8186 12.7473 15.6186C12.7473 16.1186 12.8473 16.6186 12.8473 17.2186C13.0473 19.3186 12.8473 21.5186 12.8473 23.6186C12.8473 24.3186 12.8473 25.0186 13.0473 25.7186C13.1473 26.0186 13.3473 27.2186 13.2473 27.3186C12.7473 27.8186 12.8473 28.4186 13.5473 28.5186C14.3473 28.7186 15.3473 28.4186 15.8473 27.9186C16.8473 27.0186 16.3473 25.5186 16.1473 24.3186C15.7473 22.3186 16.2473 20.1186 16.1473 18.1186C16.0473 15.8186 15.7473 13.6186 15.7473 11.3186C15.7473 9.51856 16.0473 7.61856 15.4473 5.81856C15.4473 5.61856 15.5473 5.41856 15.5473 5.21856C15.7473 4.31856 12.7473 4.81856 12.3473 5.61856C12.0473 5.81856 11.9473 6.11856 12.0473 6.41856C12.0473 6.51856 12.1473 6.51856 12.1473 6.61856C11.5473 9.31856 10.8473 11.9186 9.94733 14.5186C9.64733 15.5186 9.24733 16.5186 8.84733 17.5186C8.34733 16.6186 7.84733 15.6186 7.44733 14.7186C6.24733 11.8186 5.24733 8.91856 3.84733 6.11856C4.04733 4.81856 1.14732 4.91856 0.547324 6.11856C-0.152676 7.51856 -0.0526737 9.01856 0.147326 10.5186C0.447326 12.2186 0.447326 13.9186 0.447326 15.6186C0.447326 18.9186 0.747327 22.3186 0.847327 25.6186C0.547327 25.9186 0.447325 26.3186 0.747325 26.8186C0.847325 27.0186 1.04732 27.1186 1.24732 27.3186C2.44732 28.0186 4.54732 27.5186 4.54732 26.3186Z"/>
        <path d="M22.7473 7.91856C22.6473 7.31856 19.3473 8.01856 19.4473 8.81856C19.7473 10.6186 19.6473 12.4186 19.5473 14.2186C19.5473 15.9186 19.9473 17.5186 20.1473 19.2186C20.3473 20.9186 20.0473 22.7186 20.2473 24.4186C20.3473 25.2186 20.8473 26.7186 20.3473 27.4186C19.9473 27.8186 21.5473 27.7186 21.6473 27.7186C22.2473 27.6186 23.1473 27.4186 23.5473 26.8186C24.1473 26.1186 23.7473 24.8186 23.5473 24.0186C23.2473 22.3186 23.4473 20.5186 23.3473 18.7186C23.2473 17.0186 22.7473 15.4186 22.6473 13.8186C22.9473 11.8186 23.0473 9.91856 22.7473 7.91856Z"/>
        <path d="M25.9473 14.6186C26.8473 17.1186 30.5473 15.9186 32.5473 16.1186C35.7473 16.3186 34.8473 20.7186 34.8473 22.7186C34.8473 23.8186 35.8473 25.6186 35.0473 26.5186C34.5473 27.1186 33.3473 27.1186 32.6473 27.1186C31.9473 27.2186 30.7473 27.4186 30.3473 26.7186C29.5473 25.5186 30.4473 23.5186 30.2473 22.1186C30.1473 21.3186 26.8473 22.0186 26.9473 23.0186C27.2473 25.2186 25.7473 28.2186 28.9473 28.6186C31.0473 28.8186 33.3473 28.5186 35.2473 27.8186C36.2473 27.5186 37.1473 27.0186 37.9473 26.3186C38.8473 25.5186 38.5473 24.3186 38.3473 23.3186C37.7473 20.8186 38.9473 18.0186 37.3473 15.8186C35.6473 13.5186 32.3473 15.1186 30.1473 14.5186C28.9473 14.3186 28.9473 12.7186 28.9473 11.7186C28.9473 10.5186 28.8473 9.41856 28.7473 8.21856C28.6473 7.31856 28.7473 6.41856 29.3473 5.81856C29.4473 5.71856 30.0473 5.51856 30.0473 5.51856C30.3473 5.41856 30.6473 5.41856 30.9473 5.41856C32.2473 5.31856 34.8473 5.61856 34.3473 7.51856C34.1473 8.41856 37.3473 7.91856 37.6473 7.01856C38.6473 3.11856 31.5473 3.91856 29.4473 4.41856C27.5473 4.91856 25.5473 6.01856 25.4473 8.11856C25.3473 9.11856 25.6473 10.1186 25.7473 11.1186C25.7473 12.3186 25.4473 13.5186 25.9473 14.6186Z"/>
        <path d="M40.3473 16.5186C40.2473 18.3186 40.1473 20.1186 40.1473 21.9186C40.1473 22.8186 40.2473 23.7186 40.4473 24.7186C40.5473 25.5186 40.8473 26.7186 40.6473 27.5186C40.4473 28.1186 43.6473 27.7186 43.9473 26.9186C44.4473 25.4186 43.7473 23.5186 43.6473 22.0186C43.5473 20.5186 43.6473 19.1186 43.7473 17.6186C45.4473 17.5186 47.1473 17.4186 48.8473 17.6186C48.9473 18.8186 49.0473 19.9186 49.1473 21.1186C49.2473 22.1186 49.3473 23.0186 49.3473 24.0186C49.3473 24.9186 49.4473 26.1186 49.1473 26.9186C48.4473 28.6186 51.8473 28.5186 52.2473 27.2186C52.8473 25.6186 52.6473 23.7186 52.5473 22.0186C52.2473 19.8186 51.9473 17.8186 51.9473 15.7186C51.8473 12.5186 51.3473 9.41856 51.3473 6.21856C51.3473 4.51856 48.0473 5.11856 48.0473 6.51856C48.0473 9.51856 48.4473 12.5186 48.6473 15.6186C48.6473 15.7186 48.6473 15.7186 48.6473 15.8186C47.0473 15.8186 45.3473 15.9186 43.7473 16.0186C43.9473 12.1186 43.2473 8.21856 43.3473 4.31856C43.3473 3.81856 40.0473 4.21856 40.0473 5.21856C39.8473 9.01856 40.4473 12.7186 40.3473 16.5186Z"/>
        <path d="M54.4473 21.8186C54.1473 22.1186 54.2473 22.2186 54.4473 22.3186C54.4473 23.8186 54.4473 25.2186 54.2473 26.7186C53.8473 27.3186 54.6473 27.7186 55.1473 27.7186H55.2473C55.8473 27.7186 57.4473 27.4186 57.5473 26.6186C57.7473 24.8186 57.7473 23.1186 57.7473 21.3186C59.0473 19.9186 60.1473 18.2186 61.1473 16.6186C61.7473 17.8186 62.3473 19.1186 62.8473 20.5186C63.5473 22.8186 64.7473 24.9186 65.4473 27.3186C65.9473 28.8186 69.2473 27.9186 68.7473 26.4186C68.0473 24.1186 66.8473 21.9186 66.1473 19.6186C65.3473 17.3186 64.1473 15.2186 63.1473 13.0186C63.9473 11.4186 64.8473 9.71856 65.6473 8.01856C66.3473 6.51856 66.8473 4.81856 68.2473 3.71856C68.7473 3.31856 68.7473 2.91856 68.0473 2.91856C67.3473 2.81856 66.3473 3.11856 65.7473 3.51856C64.4473 4.51856 63.7473 5.71856 63.0473 7.11856C62.2473 8.81856 61.4473 10.5186 60.5473 12.2186C60.4473 12.3186 60.4473 12.4186 60.3473 12.6186C59.9473 12.9186 59.6473 13.2186 59.8473 13.7186C59.1473 15.0186 58.5473 16.3186 57.7473 17.6186C57.4473 12.9186 56.9473 8.31856 56.7473 3.61856C56.7473 2.51856 53.4473 3.21856 53.4473 4.51856C53.6473 10.2186 54.4473 16.0186 54.4473 21.8186Z"/>
        <path d="M85.9473 15.6186C85.7473 14.9186 84.7473 14.9186 84.0473 15.0186C84.0473 14.7186 84.0473 14.4186 84.0473 14.2186C83.9473 12.0186 83.9473 9.71856 83.7473 7.41856C83.5473 5.31856 82.4473 4.61856 80.4473 4.71856C78.4473 4.81856 76.0473 5.11856 74.1473 5.91856C71.9473 6.81856 70.7473 8.41856 70.3473 10.7186C69.8473 13.2186 70.5473 15.9186 70.6473 18.5186C70.7473 21.5186 70.7473 24.4186 70.7473 27.4186C70.7473 27.9186 74.0473 27.4186 74.0473 26.5186C74.0473 24.2186 74.0473 21.8186 74.0473 19.5186C74.0473 18.8186 74.0473 18.1186 73.9473 17.4186C75.1473 16.9186 77.0473 17.4186 78.2473 17.5186C79.1473 17.6186 80.0473 17.4186 80.9473 17.3186C80.9473 19.2186 81.0473 21.2186 81.1473 23.2186C81.1473 24.2186 81.5473 26.2186 80.8473 27.0186C80.4473 27.4186 82.0473 27.3186 82.1473 27.3186C82.8473 27.2186 83.6473 27.0186 84.0473 26.4186C84.8473 25.5186 84.4473 23.2186 84.3473 22.1186C84.2473 20.5186 84.2473 18.9186 84.2473 17.3186C85.0473 16.9186 86.1473 16.3186 85.9473 15.6186ZM79.3473 15.4186C77.4473 15.4186 75.5473 15.1186 73.6473 15.4186C73.5473 14.3186 73.4473 13.3186 73.3473 12.2186C73.2473 10.2186 73.4473 7.51856 75.2473 6.31856C75.7473 6.01856 76.6473 6.01856 77.2473 5.91856C78.0473 5.81856 78.8473 5.61856 79.6473 6.11856C80.6473 6.81856 80.4473 9.21856 80.4473 10.2186C80.4473 11.9186 80.6473 13.6186 80.7473 15.3186C80.2473 15.4186 79.7473 15.4186 79.3473 15.4186Z"/>
        <path d="M19.1473 4.11856C19.1473 4.31856 19.1473 4.51856 19.2473 4.61856V4.71856C19.2473 4.81856 19.2473 4.91856 19.2473 5.01856C19.3473 5.21856 19.4473 5.31856 19.6473 5.41856C19.9473 5.61856 20.3473 5.61856 20.7473 5.61856C21.1473 5.61856 21.6473 5.41856 21.9473 5.21856C22.0473 5.11856 22.0473 5.11856 22.1473 5.01856C22.5473 4.71856 22.9473 4.31856 22.7473 3.91856C22.3473 3.01856 22.3473 2.01856 22.4473 1.01856C22.4473 0.218559 21.6473 -0.0814409 20.9473 0.0185591C20.3473 0.118559 19.1473 0.518558 19.1473 1.31856C19.1473 2.11856 19.0473 3.01856 19.2473 3.81856C19.1473 3.91856 19.1473 4.01856 19.1473 4.11856Z"/>
        <path d="M80.6473 33.3186C79.0473 32.7186 77.3473 32.7186 75.7473 32.5186C74.1473 32.3186 72.5473 32.1186 70.8473 31.9186C69.2473 32.0186 67.5473 31.9186 65.8473 32.0186L60.9473 32.3186C54.4473 32.6186 47.9473 32.6186 41.4473 32.4186C34.9473 32.3186 28.4473 31.9186 21.8473 31.9186C18.5473 31.9186 15.2473 32.0186 11.9473 32.2186C10.3473 32.5186 8.74733 32.7186 7.04733 33.1186C5.44733 33.5186 3.94733 34.0186 2.24733 34.1186C3.84733 34.5186 5.54733 34.4186 7.24733 34.4186C8.84733 34.4186 10.4473 34.5186 12.1473 34.6186C15.3473 34.4186 18.6473 34.4186 21.8473 34.3186C28.3473 34.3186 34.8473 34.6186 41.4473 34.8186C47.9473 34.9186 54.5473 35.0186 61.1473 34.7186L66.0473 34.4186C67.6473 34.3186 69.2473 34.3186 70.8473 34.3186C72.4473 34.2186 74.1473 34.0186 75.7473 33.8186C77.4473 33.6186 78.9473 33.2186 80.6473 33.3186H80.7473V33.2186C80.7473 33.0186 80.7473 32.9186 80.7473 32.7186C80.7473 33.1186 80.7473 33.2186 80.6473 33.3186Z"/>
      </symbol>

      <symbol id="medium-logo" viewBox="0 0 114 46" fill="none" xmlns="http://www.w3.org/2000/svg">
        <path d="M110.889 41.8087C115.312 42.7068 111.693 5.98661 110.989 3.59182C108.979 -2.99387 84.1469 1.49637 78.6176 1.8955C65.8498 2.89333 53.283 0.897673 40.8169 1.49637C34.5838 1.79572 5.73056 -0.299724 3.11668 3.49203C-1.91001 10.6764 0.402269 29.2361 1.80974 38.5159C-2.21161 39.3142 4.12202 42.7068 4.92629 43.4053C11.2599 45.6005 21.4138 43.2057 28.0491 43.8044C43.5313 45.3011 60.0188 41.6092 75.6015 42.8066C80.1256 43.9042 85.2528 43.8044 89.8773 44.004C93.396 49.5918 109.682 41.6092 110.889 41.8087C110.788 41.8087 111.392 41.9085 110.889 41.8087Z" fill="black"/>
        <path d="M26.2395 24.3475C26.139 21.853 25.7368 19.2586 25.7368 16.764C25.7368 14.6686 26.139 12.5731 25.4352 10.5775C25.4352 10.3779 25.5358 10.1783 25.5358 9.879C25.7368 8.88117 22.4192 9.38008 21.9165 10.2781C21.6149 10.5775 21.4139 10.8768 21.5144 11.1762C21.5144 11.276 21.6149 11.3757 21.6149 11.3757C21.0117 14.3692 20.1069 17.3627 19.1016 20.2564C18.6995 21.3541 18.2973 22.4517 17.8952 23.6491C17.292 22.6512 16.7893 21.5536 16.2866 20.456C14.9797 17.1632 13.7733 13.8703 12.1648 10.777C12.3658 9.2803 9.14875 9.47986 8.44501 10.777C7.64074 12.3736 7.74127 13.9701 8.04287 15.6664C8.34448 17.5623 8.34447 19.4582 8.44501 21.4538C8.44501 25.2456 8.74661 28.9376 8.84714 32.7293C8.54554 33.1285 8.44501 33.5276 8.74661 34.0265C8.94768 34.2261 9.04821 34.4256 9.24928 34.5254C10.1541 35.2239 12.5669 34.6252 12.5669 33.328C12.5669 29.4365 12.2653 25.5449 12.1648 21.6534C12.1648 21.2543 12.1648 20.8551 12.1648 20.5558C12.2653 20.6556 12.2653 20.8551 12.3658 20.9549C12.969 22.4517 13.5722 23.9484 14.477 25.3454C15.2813 26.7423 15.6834 28.2391 16.1861 29.7358C15.985 29.9354 15.8845 30.135 15.985 30.4343C15.985 30.6339 16.0856 30.7337 16.1861 30.7337C16.7893 31.2326 17.8952 31.033 18.5989 30.7337C18.9005 30.6339 19.1016 30.5341 19.4032 30.3345C19.7048 30.135 20.2075 29.7358 20.1069 29.2369C20.1069 29.1371 20.0064 29.0373 20.0064 28.9376C20.4085 27.7402 20.7101 26.443 20.9112 25.2456C21.2128 23.8486 21.6149 22.6512 22.1176 21.3541C22.1176 21.9528 22.2181 22.5514 22.2181 23.1501C22.4192 25.5449 22.2181 27.9397 22.2181 30.3345C22.2181 31.1328 22.3187 31.8313 22.4192 32.6295C22.5197 32.9289 22.7208 34.3259 22.7208 34.4256C22.1176 34.9246 22.3187 35.623 23.1229 35.8226C24.0277 36.0222 25.1336 35.7228 25.7368 35.1241C26.8427 34.1263 26.34 32.43 26.0384 31.1328C25.7368 29.1371 26.34 26.6426 26.2395 24.3475Z" fill="white"/>
        <path d="M34.1817 25.046C34.0811 23.1501 33.4779 21.3541 33.4779 19.4582C33.4779 17.2629 33.679 15.0677 33.3774 12.9723C33.2769 12.2738 29.5571 13.0721 29.6576 13.9701C29.9592 15.9658 29.8587 17.9614 29.8587 19.9571C29.8587 21.853 30.2608 23.6491 30.5624 25.5449C30.864 27.5406 30.4619 29.4365 30.663 31.4321C30.7635 32.3302 31.3667 34.0265 30.7635 34.8248C30.3614 35.3237 32.171 35.1241 32.2715 35.1241C32.9753 35.0243 33.9806 34.725 34.4833 34.1263C35.0865 33.328 34.6843 31.8313 34.5838 30.9332C34.0811 29.0373 34.2822 26.9419 34.1817 25.046Z" fill="white"/>
        <path d="M49.7644 21.853C47.7537 19.2586 44.1345 21.1545 41.6212 20.3562C40.3142 19.9571 40.3142 18.161 40.3142 17.1632C40.3142 15.7662 40.2137 14.5688 40.0126 13.2716C39.9121 12.2738 40.0126 11.276 40.7164 10.4777C40.8169 10.3779 41.5206 10.1783 41.5206 10.1783C41.8222 10.0786 42.1238 10.0786 42.526 10.0786C44.034 9.97878 46.9494 10.2781 46.3462 12.4734C46.0446 13.4712 49.7644 12.8725 50.066 11.8747C51.2724 7.4842 43.1292 8.38225 40.8169 8.98095C38.7057 9.57965 36.3934 10.777 36.2929 13.1718C36.1923 14.3692 36.5945 15.4669 36.5945 16.5645C36.695 17.8616 36.3934 19.1588 36.8961 20.456C37.9014 23.2499 42.1238 21.9528 44.3356 22.1523C47.9548 22.4517 46.9495 27.341 46.9495 29.636C46.9495 30.8334 48.0553 32.9289 47.1505 33.9267C46.5473 34.5254 45.2404 34.6252 44.5366 34.6252C43.7324 34.725 42.4254 34.9246 41.9228 34.2261C41.018 32.9289 42.0233 30.6339 41.8222 29.1371C41.7217 28.2391 37.9014 29.0373 38.1025 30.135C38.4041 32.6295 36.7955 35.9224 40.4148 36.4213C42.727 36.7206 45.3409 36.2217 47.5527 35.5232C48.6585 35.1241 49.7644 34.6252 50.6692 33.8269C51.6745 32.9289 51.3729 31.6317 51.0713 30.4343C50.2671 27.4408 51.574 24.2478 49.7644 21.853Z" fill="white"/>
        <path d="M66.3525 21.6534C66.252 18.0612 65.6488 14.5688 65.6488 10.9766C65.6488 9.08073 61.8285 9.77921 61.8285 11.276C61.8285 14.6686 62.3311 18.0612 62.4317 21.4538C62.4317 21.5536 62.4317 21.5536 62.4317 21.6534C60.6221 21.6534 58.7119 21.853 56.8018 21.853C57.0028 17.4625 56.1986 13.0721 56.3996 8.78138C56.3996 8.18268 52.6799 8.6816 52.6799 9.77921C52.4788 13.9701 53.2831 18.2608 53.082 22.4517C52.9815 24.4473 52.881 26.443 52.881 28.5384C52.881 29.5363 53.082 30.6339 53.1826 31.6317C53.2831 32.5298 53.6852 33.8269 53.3836 34.725C53.1826 35.4235 56.8018 35.0243 57.1034 34.0265C57.606 32.3302 56.9023 30.2347 56.7012 28.5384C56.5002 26.9419 56.7012 25.2456 56.8018 23.5493C58.7119 23.4495 60.7226 23.2499 62.6327 23.5493C62.7333 24.8465 62.8338 26.1436 62.9343 27.4408C63.0349 28.5384 63.1354 29.636 63.1354 30.7337C63.1354 31.7315 63.2359 33.1285 62.9343 34.0265C62.2306 36.0222 65.9503 35.8226 66.453 34.3259C67.1568 32.5298 66.9557 30.3345 66.8552 28.5384C66.7546 26.3432 66.3525 23.9484 66.3525 21.6534Z" fill="white"/>
        <path d="M82.4378 25.9441C81.533 23.3497 80.1256 21.0547 79.0197 18.5601C80.025 16.6642 80.9298 14.8682 81.8346 12.9723C82.6389 11.276 83.2421 9.38008 84.7501 8.18269C85.2528 7.78355 85.2528 7.38442 84.5491 7.28464C83.7448 7.18485 82.5384 7.4842 81.9352 7.98312C80.5277 9.08073 79.6229 10.3779 78.9192 12.0742C78.0144 13.9701 77.1096 15.9658 76.1042 17.8616C76.0037 17.9614 76.0037 18.161 75.9032 18.2608C75.4005 18.5601 75.1994 18.9593 75.3 19.4582C74.4957 20.9549 73.7919 22.4517 72.8871 23.8486C72.5855 18.5601 71.9823 13.3714 71.7813 8.0829C71.7813 6.88551 67.961 7.58399 68.0615 9.08073C68.2626 15.5666 69.2679 22.0525 69.2679 28.5384C68.9663 28.8378 69.0669 29.0374 69.3685 29.1371C69.3685 30.8334 69.2679 32.43 69.1674 34.1263C68.7653 34.8248 69.5695 35.2239 70.1727 35.2239H70.2733C70.977 35.2239 72.7866 34.9246 72.8871 33.9267C73.0882 31.9311 73.0882 29.9354 73.0882 27.9397C74.5962 26.3432 75.8026 24.5471 76.9085 22.6512C77.6122 24.0482 78.316 25.4452 78.8186 26.9419C79.6229 29.5363 81.0304 31.9311 81.8346 34.5254C82.3373 36.2217 86.0571 35.2239 85.5544 33.5276C84.6496 30.9332 83.3427 28.5384 82.4378 25.9441Z" fill="white"/>
        <path d="M104.857 21.5536C104.656 20.7554 103.55 20.7554 102.645 20.8551C102.645 20.5558 102.645 20.2564 102.645 19.8573C102.545 17.3627 102.444 14.7684 102.243 12.2738C102.042 9.97878 100.735 9.08073 98.4228 9.18052C96.1105 9.2803 93.3961 9.67943 91.2849 10.4777C88.7716 11.4755 87.3641 13.2716 86.962 15.866C86.4593 18.7597 87.163 21.7532 87.3641 24.6469C87.4646 27.9397 87.4646 31.3324 87.4646 34.6252C87.4646 35.1241 91.1844 34.6252 91.1844 33.6274C91.1844 31.033 91.1844 28.3389 91.1844 25.7445C91.1844 24.9462 91.1844 24.2478 91.0839 23.4495C92.3908 22.8508 94.6025 23.4495 95.9095 23.5493C97.0153 23.6491 98.0207 23.3497 99.026 23.2499C99.026 25.4452 99.1266 27.6404 99.2271 29.8356C99.2271 30.9332 99.7298 33.2282 98.9255 34.1263C98.5234 34.6252 100.333 34.4256 100.433 34.4256C101.238 34.3259 102.143 34.0265 102.645 33.4278C103.55 32.3302 103.047 29.8356 103.047 28.5384C102.947 26.7423 102.947 24.9462 102.947 23.1501C103.852 23.0504 105.058 22.3519 104.857 21.5536ZM90.9833 21.3541C90.8828 20.1567 90.7823 18.9593 90.6817 17.7619C90.4807 15.5666 90.7823 12.4734 92.8935 11.1762C93.4967 10.777 94.502 10.8768 95.1052 10.777C96.01 10.5775 97.0153 10.3779 97.8196 10.9766C98.9255 11.7749 98.7244 14.469 98.7244 15.5666C98.7244 17.4625 98.9255 19.3584 99.026 21.2543C98.5234 21.3541 97.9202 21.3541 97.4175 21.3541C95.2057 21.2543 92.994 20.9549 90.9833 21.3541Z" fill="white"/>
        <path d="M30.9646 10.3779C31.4673 10.3779 31.9699 10.1783 32.3721 9.879C32.4726 9.77921 32.5731 9.77922 32.5731 9.67943C33.0758 9.38008 33.4779 8.88117 33.2769 8.38225C32.7742 7.38442 32.8747 6.28681 32.8747 5.18919C32.8747 4.29115 31.9699 3.9918 31.1657 4.09158C30.4619 4.19136 29.0545 4.69028 29.0545 5.48854C29.0545 6.38659 28.9539 7.38442 29.155 8.28247C29.155 8.38225 29.0545 8.48204 29.0545 8.58182C28.9539 8.78138 29.0545 8.98095 29.155 9.18052V9.2803C29.155 9.38008 29.155 9.47987 29.155 9.57965C29.2555 9.77922 29.3561 9.97878 29.5571 10.0786C30.0598 10.3779 30.5625 10.3779 30.9646 10.3779Z" fill="white"/>
      </symbol>

      <symbol id="large-logo" viewBox="0 0 149 72" fill="none" xmlns="http://www.w3.org/2000/svg">
        <path d="M144.16 31.1053C142.65 32.1912 141.039 32.9809 139.428 33.8693C139.428 32.1912 139.328 30.4143 138.824 28.8349C138.925 28.5388 138.925 28.1439 138.925 27.8478C139.328 24.8864 139.63 20.8391 136.912 18.7662C136.61 18.47 135.704 18.7662 134.999 19.0623C134.798 18.8649 134.697 18.7662 134.496 18.6674C134.395 18.47 134.295 18.1739 134.295 17.9765C134.295 17.8777 134.093 17.779 133.892 17.779C134.194 17.3842 134.194 16.9893 133.489 16.6932C133.087 16.4958 132.684 16.397 132.382 16.2983C132.281 16.1996 132.281 16.1996 132.181 16.1996C131.275 15.9035 130.268 15.7061 129.261 15.5086C129.362 15.2125 129.664 14.7189 129.865 14.5215C129.966 14.3241 130.167 14.2254 130.268 14.1266C130.369 14.0279 130.369 14.0279 130.469 13.9292C130.469 13.9292 130.57 13.9292 130.57 13.8305C130.57 13.8305 130.57 13.8305 130.671 13.7318C131.073 13.4356 131.476 12.8434 130.872 12.5472C130.268 12.2511 129.362 12.4485 128.859 12.7447C127.953 13.4356 127.248 14.1266 126.745 15.1138C124.732 14.9163 122.718 14.9163 120.604 15.0151C120.705 14.9163 120.705 14.8176 120.705 14.7189C120.906 14.1266 119.799 14.2254 119.497 14.2254C117.886 14.4228 116.376 14.6202 114.766 14.8176C116.175 11.0665 117.886 6.3283 115.772 2.67591C114.564 0.602929 111.847 0.109363 109.632 0.0106495C107.216 -0.0880637 104.699 0.504216 102.585 1.59006C97.7536 4.1566 95.4383 9.19098 94.331 14.5215C93.8277 13.8305 92.0157 14.1266 91.7137 15.0151C91.6131 15.3112 91.5124 15.6073 91.4117 16.0022C91.2104 16.1996 91.1097 16.397 91.1097 16.5945C91.1097 16.6932 91.1097 16.6932 91.1097 16.7919C91.0091 16.7919 91.0091 16.7919 90.9084 16.7919C90.9084 16.6932 90.9084 16.5945 91.0091 16.4958C91.1097 16.397 91.2104 16.2983 91.3111 16.1009C91.915 13.8305 92.519 11.5601 93.2237 9.3884C93.5257 8.5987 90.7071 8.99355 90.4051 9.78326C90.0024 10.9678 89.5998 12.1524 89.2978 13.3369C89.0965 13.4356 88.8951 13.5344 88.8951 13.6331V13.7318C88.7945 13.6331 88.5931 13.5344 88.3918 13.5344C88.3918 13.2382 88.3918 12.9421 88.3918 12.5472C88.3918 12.1524 85.5732 12.5472 85.5732 13.3369C85.5732 13.8305 85.5732 14.3241 85.5732 14.9163C85.3719 15.0151 85.2712 15.1138 85.0699 15.2125C84.9692 15.3112 84.9692 15.3112 84.8686 15.4099C84.7679 15.5086 84.7679 15.6073 84.7679 15.6073V15.7061C84.7679 15.7061 84.7679 15.706 84.6672 15.8048C84.5666 15.9035 84.4659 16.1009 84.6672 16.2983C84.8686 16.4958 85.1706 16.4958 85.3719 16.4958H85.4725C85.4725 16.6932 85.4725 16.7919 85.4725 16.9893C85.2712 16.9893 84.9692 16.9893 84.7679 16.9893L84.3652 16.8906C84.3652 16.4958 83.6606 16.397 82.9559 16.5945V16.4958C82.8553 15.9035 82.7546 15.3112 82.7546 14.7189C82.9559 14.6202 83.2579 14.5215 83.4593 14.4228C83.6606 14.3241 83.7613 14.2254 83.7613 14.0279C83.7613 13.9292 83.7613 13.9292 83.7613 13.8305C83.7613 13.6331 83.3586 13.6331 83.2579 13.6331C83.0566 13.6331 82.8553 13.6331 82.654 13.6331C82.5533 12.3498 82.5533 11.0665 82.5533 9.78326C82.5533 8.99355 79.7347 9.48712 79.7347 10.573C79.7347 12.3498 79.7347 14.1266 79.936 15.8048C79.8354 15.8048 79.7347 15.8048 79.634 15.8048C79.634 15.3112 79.634 14.8176 79.634 14.3241C79.634 13.3369 78.3254 13.1395 77.5201 13.5344C77.8221 13.2382 78.0234 12.9421 77.9227 12.5472C77.5201 11.1652 77.1174 9.78326 76.9161 8.30256C76.7148 6.92057 73.8962 7.61157 74.0975 9.09227C74.2988 10.573 74.7015 11.9549 75.1041 13.3369C75.3055 14.1266 76.4128 14.2254 77.2181 13.8305C77.0168 14.0279 76.8154 14.3241 76.8154 14.6202C76.8154 14.8176 76.8154 15.0151 76.8154 15.2125C76.5135 14.9163 76.3121 14.9163 75.9095 14.9163C74.8022 14.9163 74.1982 15.8048 74.5002 16.397C74.2988 16.397 74.1982 16.2983 73.9968 16.2983C73.5942 15.1138 73.2922 13.8305 73.2922 12.5472C73.2922 11.6588 71.9836 11.5601 71.1783 11.8562C71.1783 11.7575 71.1783 11.7575 71.1783 11.6588C70.7756 10.8691 70.5743 9.98068 70.3729 9.19098C70.071 7.90771 67.1517 8.5987 67.5543 9.98068C67.7557 10.573 67.8563 11.264 68.0577 11.8562C68.0577 11.8562 68.0577 11.8562 67.957 11.8562C67.655 11.9549 67.353 12.0537 67.051 12.2511C66.2457 12.3498 65.2391 12.8434 65.2391 13.4356C65.3397 13.9292 65.3397 14.4228 65.4404 14.8176C65.0377 14.9163 64.4338 14.9163 63.9304 15.0151C63.6285 14.2254 63.4271 13.4356 63.3265 12.6459C63.2258 11.7575 61.7158 11.7575 61.0112 12.3498C60.2059 10.2768 59.1992 8.40127 57.8906 6.62443C55.1727 3.26819 50.6428 2.08363 46.5156 2.97205C44.6029 3.3669 42.791 4.1566 41.4824 5.53859C40.2744 6.92057 40.0731 8.5987 40.2744 10.2768C40.4757 11.7575 40.8784 14.2254 41.885 16.1996C41.4824 16.1996 41.1804 16.1996 40.979 16.2983C40.677 16.397 40.3751 16.4958 40.1737 16.6932C38.2611 16.6932 36.2478 16.6932 34.3352 16.5945C30.1073 16.397 25.9801 15.7061 21.7522 15.9035C20.8462 15.9035 20.2422 16.5945 20.2422 17.1867C19.2356 17.6803 18.531 18.47 18.1283 19.4572C16.417 18.3713 14.6051 17.1867 12.7931 16.2983C12.0885 15.9035 9.47119 16.9893 10.4778 17.4829C12.2898 18.3713 14.1017 19.5559 15.813 20.6417C16.3163 20.9378 17.1217 20.7404 17.625 20.543C17.625 20.543 17.7256 20.543 17.8263 20.4443C17.5243 21.8263 17.625 23.5044 18.0276 24.8864C18.0276 24.9851 18.1283 25.0838 18.229 25.1825C18.229 25.4787 18.229 25.8735 18.229 26.1697C18.229 26.2684 18.229 26.2684 18.229 26.3671C17.8263 26.5645 17.5243 26.8606 17.4236 27.1568C17.2223 28.5388 17.1217 29.9208 17.1217 31.3027C16.8197 31.5002 16.6183 31.7963 16.6183 32.0924C16.417 35.35 16.6183 38.7062 17.1217 41.9638C17.323 44.629 17.8263 47.1956 18.3296 49.8608C18.4303 50.2557 18.4303 50.6505 18.531 51.1441C18.229 52.2299 18.1283 53.5132 18.3296 54.5991C17.4236 54.7965 16.6183 55.4875 17.1217 56.1785C17.927 57.363 18.7323 58.1527 19.7389 58.745C19.1349 58.6463 18.3296 58.8437 17.8263 59.3373C17.021 60.127 16.115 60.818 15.3097 61.6077C14.907 62.0025 15.0077 62.4961 15.6117 62.6935C16.3163 62.891 17.1217 62.5948 17.625 62.2C18.4303 61.4103 19.3363 60.7193 20.1416 59.9296C20.3429 59.7321 20.4436 59.436 20.3429 59.2386C23.5642 60.9167 27.5907 60.5218 31.5166 60.127C30.6106 61.7064 30.0067 63.3845 29.302 65.0627C29 65.7536 31.8186 65.4575 32.1206 64.6678C32.7246 62.9897 33.3286 61.4103 34.2345 59.8309C37.9591 59.9296 41.7844 59.9296 45.5089 59.9296C45.6096 60.127 45.9116 60.2257 46.2136 60.2257C49.5355 60.5219 52.7567 60.127 55.978 59.5347C60.8099 59.3373 65.6417 59.0411 70.4736 58.745C78.0234 58.5476 85.6739 58.4489 93.2237 58.4489C93.3243 58.5476 93.425 58.6463 93.5257 58.745C93.8277 59.0411 94.1297 59.0411 94.5323 59.0411C94.633 59.0411 94.633 59.0411 94.7336 59.0411C95.4383 59.0411 96.1429 59.1399 96.8476 59.1399C97.0489 59.1399 97.1496 59.2386 97.4516 59.1399C98.2569 59.2386 99.0622 59.2386 99.7668 59.3373C99.9682 59.5347 100.27 59.6334 100.572 59.7321C104.397 60.0283 108.223 60.2257 112.048 60.4231C112.149 60.6206 112.551 60.7193 112.853 60.7193C120 60.818 128.255 63.4832 134.597 59.0411C135.1 58.6463 134.899 58.1527 134.295 58.054C134.194 58.054 134.093 58.054 133.993 58.054C135.201 55.29 136.207 52.5261 136.912 49.5647C137.315 49.3673 137.516 49.0711 137.516 48.6763C137.516 47.4917 137.717 46.3071 137.919 45.1226C138.12 44.2342 138.221 43.3457 138.321 42.4573C138.724 40.2856 139.126 38.1139 139.328 36.041C141.643 34.9551 143.858 33.7706 145.972 32.2899C147.582 31.1053 145.166 30.4143 144.16 31.1053ZM88.3918 16.2983L88.2911 16.397C88.3918 16.1009 88.3918 15.8048 88.4925 15.5086H88.5931C88.5931 15.7061 88.4925 16.0022 88.3918 16.2983Z" fill="black"/>
        <path d="M63.729 12.5468C63.8297 12.7442 64.333 12.7442 64.5343 12.7442C64.937 12.7442 65.3396 12.6455 65.6416 12.5468C66.0443 12.3494 66.7489 11.9545 66.4469 11.461C66.0443 10.8687 65.8429 10.2764 65.4403 9.68411C65.3396 9.48669 64.8363 9.48669 64.635 9.48669C64.2323 9.48669 63.8296 9.5854 63.5277 9.68411C63.125 9.88154 62.4204 10.2764 62.7223 10.77C63.0243 11.3622 63.3263 12.0532 63.729 12.5468Z" fill="black"/>
        <path d="M20.8461 10.8691C21.0474 11.4613 21.9534 11.4613 22.4567 11.3626C22.96 11.2639 23.866 10.7703 23.6647 10.0793C23.4634 9.48707 23.262 8.79608 22.7587 8.30251C22.2554 7.80894 21.4501 7.90766 20.8461 8.10508C20.4434 8.30251 19.6381 8.89479 20.1414 9.38835C20.5441 9.98063 20.6448 10.2768 20.8461 10.8691Z" fill="black"/>
        <path d="M30.9124 13.8306C31.7177 13.8306 34.033 12.5474 32.1204 12.5474C31.2144 12.5474 28.9998 13.8306 30.9124 13.8306Z" fill="black"/>
        <path d="M123.423 12.2512C123.725 12.3499 124.128 12.2512 124.53 12.1525C124.832 12.0538 125.235 11.9551 125.436 11.659C125.839 11.2641 126.141 10.968 126.443 10.4744C126.544 10.277 126.644 10.0795 126.443 9.88212C126.242 9.68469 125.94 9.68469 125.638 9.58598C125.235 9.58598 124.832 9.68469 124.53 9.78341C124.228 9.88212 123.926 10.0795 123.725 10.3757C123.624 10.5731 123.524 10.7705 123.322 10.8693C123.222 10.968 123.222 10.968 123.121 11.0667C122.92 11.2641 122.819 11.4615 122.819 11.659C122.92 12.0538 123.121 12.1525 123.423 12.2512Z" fill="black"/>
        <path d="M136.811 17.5816C137.415 17.4828 138.22 17.3841 138.724 16.8906C140.032 15.8047 141.341 14.7189 142.347 13.3369C142.649 12.942 141.341 13.1395 141.24 13.1395C140.737 13.2382 139.932 13.4356 139.529 13.8305C138.623 15.1137 137.314 16.1009 136.106 17.1867C135.603 17.5816 136.509 17.5816 136.811 17.5816Z" fill="black"/>
        <path d="M147.682 44.3332C146.072 44.3332 144.461 44.3332 142.75 44.3332C142.146 44.3332 141.24 44.8268 141.139 45.4191C141.039 46.1101 141.945 46.3075 142.448 46.3075C144.059 46.3075 145.669 46.3075 147.38 46.3075C147.984 46.3075 148.89 45.8139 148.991 45.2216C149.092 44.5307 148.286 44.3332 147.682 44.3332Z" fill="black"/>
        <path d="M57.3874 60.1268C56.8841 60.2255 55.9781 60.423 55.7768 60.9165C55.2734 62.1998 54.7701 63.4831 54.3675 64.7663C54.1661 65.4573 56.9847 65.0625 57.1861 64.2728C57.5887 62.9895 57.9914 61.7062 58.5954 60.423C58.7967 59.9294 57.5887 60.1268 57.3874 60.1268Z" fill="black"/>
        <path d="M62.0178 62.6935C61.7158 62.6935 61.3132 62.7922 61.0112 62.8909C60.7092 62.9896 60.3065 63.0883 60.0045 63.2858C59.9039 63.3845 59.7025 63.4832 59.7025 63.6806C59.7025 63.7793 59.7025 63.8781 59.7025 63.9768C59.7025 64.0755 59.6019 64.1742 59.6019 64.2729C59.5012 64.3716 59.5012 64.4703 59.6019 64.569C59.8032 64.6678 60.1052 64.6678 60.3065 64.6678C60.7092 64.6678 61.0112 64.569 61.4138 64.3716C61.6151 64.2729 62.0178 64.1742 62.2191 63.9768C62.3198 63.7793 62.4205 63.6806 62.5211 63.4832C62.5211 63.2858 62.5211 63.1871 62.5211 62.9896C62.5211 62.6935 62.1185 62.6935 62.0178 62.6935Z" fill="black"/>
        <path d="M117.483 66.3456C117.081 65.6546 114.464 66.6417 114.665 67.1353C115.47 68.7147 116.577 70.1954 117.584 71.7748C117.987 72.4658 120.604 71.38 120.403 70.9851C119.396 69.4057 118.289 67.925 117.483 66.3456Z" fill="black"/>
        <path d="M121.51 63.9767C121.208 63.3844 120.403 63.3844 119.9 63.5818C119.497 63.6805 118.39 64.1741 118.692 64.7664C119.094 65.5561 119.497 66.3458 119.9 67.0368C120.202 67.629 121.007 67.629 121.51 67.4316C121.913 67.3329 123.02 66.8393 122.718 66.2471C122.316 65.5561 121.913 64.7664 121.51 63.9767Z" fill="black"/>
        <path d="M5.74646 42.6544C4.2365 43.0492 2.72654 43.2467 1.21658 43.6415C0.713257 43.7402 -0.0920558 44.2338 0.00860824 44.9248C0.209936 45.6158 1.11591 45.6158 1.7199 45.5171C3.22986 45.1222 4.73982 44.9248 6.24978 44.5299C6.7531 44.4312 7.55841 43.839 7.45775 43.2467C7.15576 42.5557 6.24978 42.5557 5.74646 42.6544Z" fill="black"/>
        <path d="M44.0996 39.6922C43.9989 37.0269 43.5963 34.3617 43.5963 31.6964C43.5963 29.5247 43.9989 27.2543 43.1936 25.1814C43.1936 24.9839 43.2943 24.6878 43.2943 24.4904C43.4956 23.4045 39.9724 23.9968 39.469 24.9839C39.167 25.2801 38.9657 25.5762 39.0664 25.9711C39.0664 26.0698 39.167 26.1685 39.167 26.2672C38.4624 29.426 37.5564 32.5848 36.5498 35.645C36.1471 36.8295 35.6438 38.0141 35.2411 39.1986C34.6372 38.1128 34.0332 37.0269 33.5299 35.8424C32.1206 32.3874 30.9126 28.9325 29.2013 25.6749C29.4026 24.1942 25.9801 24.2929 25.2754 25.6749C24.4701 27.353 24.5708 29.0312 24.8728 30.9067C25.1747 32.9797 25.2754 34.954 25.2754 37.0269C25.2754 40.9755 25.6781 44.924 25.6781 48.8725C25.2754 49.2674 25.1747 49.7609 25.5774 50.2545C25.7787 50.4519 25.9801 50.6494 26.1814 50.8468C27.0874 51.5378 29.7046 50.9455 29.7046 49.5635C29.7046 45.4176 29.4026 41.3703 29.302 37.2244C29.302 36.8295 29.302 36.4347 29.302 36.0398C29.4026 36.1385 29.4026 36.3359 29.5033 36.4347C30.1073 38.0141 30.8119 39.5935 31.7179 41.0742C32.6239 42.5549 33.0265 44.1343 33.5299 45.7137C33.3285 45.9111 33.2279 46.2073 33.3285 46.4047C33.3285 46.6021 33.4292 46.7008 33.6305 46.7995C34.2345 47.3918 35.5431 47.0957 36.1471 46.7995C36.4491 46.7008 36.7511 46.5034 36.9524 46.4047C37.2544 46.2073 37.8584 45.7137 37.6571 45.2201C37.6571 45.1214 37.5564 45.0227 37.5564 44.924C38.0597 43.6407 38.2611 42.3575 38.5631 40.9755C38.8651 39.5935 39.3684 38.2115 39.8717 36.8295C39.9724 37.4218 39.9724 38.1128 40.073 38.7051C40.2744 41.2716 40.073 43.7394 40.073 46.306C40.073 47.1944 40.1737 47.8854 40.2744 48.7738C40.375 49.07 40.677 50.5507 40.5763 50.6494C39.9724 51.2416 40.1737 51.9326 40.979 52.0313C41.885 52.2288 43.0929 51.9326 43.7976 51.3404C45.0056 50.2545 44.4016 48.4777 44.2003 47.0957C43.5963 44.7266 44.0996 42.0613 44.0996 39.6922Z" fill="white"/>
        <path d="M52.5556 40.384C52.4549 38.4097 51.7503 36.5342 51.7503 34.5599C51.7503 32.2895 51.9516 30.0191 51.5489 27.7487C51.4483 27.0577 47.4217 27.8474 47.5224 28.8345C47.8244 30.9075 47.7237 33.0792 47.7237 35.1522C47.7237 37.2252 48.227 39.002 48.4283 41.075C48.7303 43.148 48.3277 45.2209 48.529 47.2939C48.6297 48.281 49.3343 50.0579 48.6297 50.8476C48.227 51.3412 50.1396 51.1437 50.2403 51.1437C51.0456 51.045 52.0522 50.7489 52.5556 50.1566C53.2602 49.3669 52.7569 47.7875 52.6562 46.8003C52.4549 44.5299 52.6562 42.457 52.5556 40.384Z" fill="white"/>
        <path d="M69.1649 37.0275C67.051 34.2636 63.2258 36.2378 60.5078 35.4481C59.0985 35.0533 59.0985 33.1777 59.0985 32.0919C59.0985 30.7099 58.9979 29.3279 58.7965 27.9459C58.6959 26.8601 58.7965 25.8729 59.6019 25.0832C59.7025 24.9845 60.5078 24.7871 60.4072 24.7871C60.8098 24.6884 61.1118 24.6884 61.5145 24.6884C63.1251 24.5897 66.2457 24.8858 65.6417 27.1562C65.3397 28.1433 69.2656 27.5511 69.5676 26.5639C70.7756 22.0231 62.1185 22.9115 59.7025 23.5038C57.4879 24.0961 54.9713 25.3794 54.8706 27.8472C54.77 29.0318 55.1726 30.2163 55.1726 31.4009C55.2733 32.7829 54.9713 34.1649 55.4746 35.5468C56.5819 38.5082 61.1118 37.1263 63.3264 37.3237C67.2523 37.6198 66.0444 42.7529 66.145 45.2207C66.145 46.504 67.353 48.6757 66.3464 49.6628C65.7424 50.3538 64.3331 50.3538 63.5278 50.4525C62.7224 50.5512 61.3131 50.7487 60.7092 49.959C59.7025 48.577 60.8098 46.2079 60.6085 44.5297C60.4072 43.5426 56.3806 44.431 56.5819 45.5169C56.8839 48.1821 55.1726 51.6371 58.9979 52.1307C61.5145 52.4268 64.2324 51.9332 66.6483 51.2422C67.8563 50.8474 68.9636 50.2551 69.9703 49.4654C70.9769 48.577 70.6749 47.0963 70.3729 45.9117C69.6683 42.9503 71.0776 39.5941 69.1649 37.0275Z" fill="white"/>
        <path d="M86.7812 36.83C86.6805 33.0789 86.0765 29.3278 86.0765 25.5767C86.0765 23.6024 82.05 24.2934 82.05 25.8729C82.05 29.4265 82.5533 32.9802 82.7546 36.6326C82.7546 36.7313 82.7546 36.7313 82.7546 36.83C80.7413 36.83 78.8287 37.0274 76.8154 37.0274C77.0168 32.3879 76.2114 27.8471 76.4128 23.2076C76.4128 22.6153 72.4869 23.1089 72.3862 24.2934C72.1849 28.7355 72.9902 33.1776 72.8895 37.6197C72.7889 39.7914 72.6882 41.8644 72.5875 44.0361C72.5875 45.1219 72.7889 46.2078 72.8895 47.2936C72.9902 48.2808 73.3928 49.6627 73.0909 50.5512C72.8895 51.3409 76.7148 50.8473 77.0168 49.8602C77.5201 48.0833 76.8154 45.8129 76.6141 44.0361C76.4128 42.358 76.6141 40.5811 76.7148 38.8043C78.728 38.7056 80.842 38.5081 82.8553 38.8043C82.9559 40.1863 83.0566 41.5683 83.1573 42.9502C83.2579 44.1348 83.3586 45.2206 83.3586 46.4052C83.3586 47.3923 83.4593 48.873 83.1573 49.8602C82.352 51.9331 86.3785 51.7357 86.9825 50.255C87.6871 48.3795 87.4858 46.1091 87.3852 44.1348C87.1838 41.7657 86.7812 39.2979 86.7812 36.83Z" fill="white"/>
        <path d="M103.894 41.3711C102.988 38.6071 101.478 36.238 100.27 33.5728C101.277 31.5985 102.283 29.7229 103.29 27.7487C104.095 25.9718 104.8 23.8989 106.411 22.7143C107.015 22.2207 107.015 21.8259 106.109 21.7272C105.203 21.6285 103.995 21.9246 103.29 22.4182C101.78 23.6027 100.874 24.9847 100.069 26.6628C99.0622 28.7358 98.1562 30.7101 97.0489 32.6843C96.9482 32.783 96.8475 32.9805 96.8475 33.0792C96.3442 33.3753 96.0422 33.8689 96.2436 34.3625C95.4382 35.9419 94.6329 37.4226 93.727 39.002C93.425 33.474 92.7203 27.9461 92.519 22.4182C92.519 21.1349 88.4924 21.9246 88.4924 23.504C88.6938 30.3152 89.7004 37.1264 89.8011 44.0364C89.8011 44.0364 89.8011 44.0364 89.8011 44.1351C89.4991 44.4312 89.5997 44.6286 89.9017 44.7273C89.9017 46.5042 89.8011 48.1823 89.7004 49.9591C89.1971 50.7489 90.2037 51.045 90.8077 51.045H90.9084C91.613 51.045 93.5256 50.6501 93.6263 49.663C93.8276 47.59 93.9283 45.5171 93.8276 43.4441C95.4382 41.7659 96.7469 39.7917 97.9549 37.8174C98.7602 39.2981 99.4648 40.7788 99.9681 42.3582C100.874 45.1222 102.283 47.59 103.189 50.354C103.693 52.1308 107.719 51.045 107.216 49.2682C106.31 46.6029 104.901 44.0364 103.894 41.3711Z" fill="white"/>
        <path d="M127.852 36.7316C127.651 35.9419 126.443 35.8431 125.537 35.9419C125.537 35.6457 125.537 35.2509 125.537 34.9547C125.437 32.2895 125.336 29.6242 125.135 26.959C124.933 24.4911 123.524 23.6027 121.108 23.7014C118.692 23.8001 115.773 24.195 113.457 25.0834C110.84 26.0705 109.33 28.0448 108.827 30.7101C108.223 33.6715 109.028 36.929 109.23 39.8904C109.431 43.3453 109.33 46.899 109.33 50.354C109.33 50.9463 113.357 50.354 113.357 49.2681C113.357 46.5042 113.357 43.7402 113.357 40.9762C113.357 40.1865 113.256 39.3968 113.256 38.5084C114.665 37.9161 116.981 38.5084 118.39 38.6071C119.497 38.7058 120.605 38.4097 121.712 38.311C121.712 40.5814 121.813 42.9505 121.913 45.2209C121.913 46.4055 122.417 48.7746 121.511 49.7617C121.108 50.2553 123.021 50.0578 123.121 50.0578C123.927 49.9591 124.933 49.663 125.437 48.972C126.443 47.8862 125.94 45.2209 125.839 43.8389C125.738 41.9634 125.738 39.9891 125.738 38.1135C126.745 38.311 128.054 37.5213 127.852 36.7316ZM112.954 36.5341C112.853 35.2509 112.753 34.0663 112.652 32.783C112.451 30.4139 112.753 27.2551 114.967 25.7744C115.571 25.3795 116.679 25.4783 117.383 25.3795C118.39 25.1821 119.397 24.9847 120.303 25.577C121.511 26.3667 121.209 29.2294 121.209 30.4139C121.209 32.3882 121.41 34.3624 121.511 36.4354C120.907 36.5341 120.403 36.5341 119.799 36.5341C117.484 36.4354 115.169 36.1393 112.954 36.5341Z" fill="white"/>
        <path d="M49.1328 24.9843C49.6361 24.8856 50.2401 24.7869 50.6427 24.4908C50.7434 24.3921 50.8441 24.3921 50.9447 24.2933C51.4481 23.9972 51.9514 23.5036 51.6494 22.9114C51.1461 21.8255 51.2467 20.641 51.2467 19.5551C51.2467 18.568 50.2401 18.2718 49.4348 18.3705C48.7301 18.4693 47.2202 18.9628 47.2202 19.8512C47.2202 20.8384 47.1195 21.8255 47.3208 22.8126C47.3208 22.9114 47.2202 23.0101 47.2202 23.2075C47.1195 23.4049 47.2202 23.6023 47.3208 23.7998V23.8985C47.3208 23.9972 47.3208 24.0959 47.3208 24.1946C47.4215 24.3921 47.5222 24.5895 47.7235 24.6882C48.1261 24.9843 48.6295 24.9843 49.1328 24.9843Z" fill="white"/>
      </symbol>

      <symbol id="cart-icon" viewBox="0 0 21 18" fill="inherit" xmlns="http://www.w3.org/2000/svg">
        <path d="M20.1884 6.85716H16.6377L13.1884 0.380944C12.9855 -8.61287e-06 12.5797 -0.0952351 12.1739 0.0952412C11.7681 0.285717 11.6667 0.66667 11.8696 1.04762L15.0145 6.85716H5.7826L8.92753 1.04762C9.13043 0.66667 8.92754 0.285717 8.6232 0.0952412C8.2174 -0.0952351 7.8116 0.0952295 7.6087 0.380944L4.1594 6.85716H0.811583C0.405785 6.85716 0 7.14286 0 7.61905C0 8 0.304336 8.38094 0.811583 8.38094H1.01449L1.92753 11.2381C1.72463 11.3333 1.62317 11.5238 1.62317 11.8095C1.62317 12.1905 1.92753 12.4762 2.33332 12.4762L4.05797 18H16.942L18.6667 12.4762C19.0725 12.4762 19.3768 12.1905 19.3768 11.8095C19.3768 11.619 19.2754 11.3333 19.0725 11.2381L19.9855 8.38094H20.1884C20.5942 8.38094 21 8.09524 21 7.61905C21 7.14286 20.5942 6.85716 20.1884 6.85716ZM15.6232 16.4762H5.07247L3.85506 12.381H16.942L15.6232 16.4762ZM17.2464 10.9524H3.34782L2.53623 8.28573H18.058L17.2464 10.9524Z"/>
      </symbol>

      <symbol id="search-icon" viewBox="0 0 18 18" fill="inherit" xmlns="http://www.w3.org/2000/svg">
        <path d="M17.6932 16.0568L14.2159 12.5795C15.2386 11.25 15.75 9.61364 15.75 7.875C15.75 3.47727 12.2727 0 7.875 0C3.47727 0 0 3.47727 0 7.875C0 12.2727 3.47727 15.75 7.875 15.75C9.61364 15.75 11.25 15.1364 12.5795 14.2159L16.0568 17.6932C16.2614 17.8977 16.4659 18 16.875 18C17.4886 18 18 17.4886 18 16.875C18 16.6705 17.8977 16.3636 17.6932 16.0568ZM2.25 7.875C2.25 4.80682 4.80682 2.25 7.875 2.25C10.9432 2.25 13.5 4.80682 13.5 7.875C13.5 10.9432 10.9432 13.5 7.875 13.5C4.80682 13.5 2.25 10.9432 2.25 7.875Z"/>
      </symbol>



      <symbol id="site-logo" viewBox="0 0 149 72" fill="none" xmlns="http://www.w3.org/2000/svg">
        <path class="site-logo__background" d="M144.16 31.1053C142.65 32.1912 141.039 32.9809 139.428 33.8693C139.428 32.1912 139.328 30.4143 138.824 28.8349C138.925 28.5388 138.925 28.1439 138.925 27.8478C139.328 24.8864 139.63 20.8391 136.912 18.7662C136.61 18.47 135.704 18.7662 134.999 19.0623C134.798 18.8649 134.697 18.7662 134.496 18.6674C134.395 18.47 134.295 18.1739 134.295 17.9765C134.295 17.8777 134.093 17.779 133.892 17.779C134.194 17.3842 134.194 16.9893 133.489 16.6932C133.087 16.4958 132.684 16.397 132.382 16.2983C132.281 16.1996 132.281 16.1996 132.181 16.1996C131.275 15.9035 130.268 15.7061 129.261 15.5086C129.362 15.2125 129.664 14.7189 129.865 14.5215C129.966 14.3241 130.167 14.2254 130.268 14.1266C130.369 14.0279 130.369 14.0279 130.469 13.9292C130.469 13.9292 130.57 13.9292 130.57 13.8305C130.57 13.8305 130.57 13.8305 130.671 13.7318C131.073 13.4356 131.476 12.8434 130.872 12.5472C130.268 12.2511 129.362 12.4485 128.859 12.7447C127.953 13.4356 127.248 14.1266 126.745 15.1138C124.732 14.9163 122.718 14.9163 120.604 15.0151C120.705 14.9163 120.705 14.8176 120.705 14.7189C120.906 14.1266 119.799 14.2254 119.497 14.2254C117.886 14.4228 116.376 14.6202 114.766 14.8176C116.175 11.0665 117.886 6.3283 115.772 2.67591C114.564 0.602929 111.847 0.109363 109.632 0.0106495C107.216 -0.0880637 104.699 0.504216 102.585 1.59006C97.7536 4.1566 95.4383 9.19098 94.331 14.5215C93.8277 13.8305 92.0157 14.1266 91.7137 15.0151C91.6131 15.3112 91.5124 15.6073 91.4117 16.0022C91.2104 16.1996 91.1097 16.397 91.1097 16.5945C91.1097 16.6932 91.1097 16.6932 91.1097 16.7919C91.0091 16.7919 91.0091 16.7919 90.9084 16.7919C90.9084 16.6932 90.9084 16.5945 91.0091 16.4958C91.1097 16.397 91.2104 16.2983 91.3111 16.1009C91.915 13.8305 92.519 11.5601 93.2237 9.3884C93.5257 8.5987 90.7071 8.99355 90.4051 9.78326C90.0024 10.9678 89.5998 12.1524 89.2978 13.3369C89.0965 13.4356 88.8951 13.5344 88.8951 13.6331V13.7318C88.7945 13.6331 88.5931 13.5344 88.3918 13.5344C88.3918 13.2382 88.3918 12.9421 88.3918 12.5472C88.3918 12.1524 85.5732 12.5472 85.5732 13.3369C85.5732 13.8305 85.5732 14.3241 85.5732 14.9163C85.3719 15.0151 85.2712 15.1138 85.0699 15.2125C84.9692 15.3112 84.9692 15.3112 84.8686 15.4099C84.7679 15.5086 84.7679 15.6073 84.7679 15.6073V15.7061C84.7679 15.7061 84.7679 15.706 84.6672 15.8048C84.5666 15.9035 84.4659 16.1009 84.6672 16.2983C84.8686 16.4958 85.1706 16.4958 85.3719 16.4958H85.4725C85.4725 16.6932 85.4725 16.7919 85.4725 16.9893C85.2712 16.9893 84.9692 16.9893 84.7679 16.9893L84.3652 16.8906C84.3652 16.4958 83.6606 16.397 82.9559 16.5945V16.4958C82.8553 15.9035 82.7546 15.3112 82.7546 14.7189C82.9559 14.6202 83.2579 14.5215 83.4593 14.4228C83.6606 14.3241 83.7613 14.2254 83.7613 14.0279C83.7613 13.9292 83.7613 13.9292 83.7613 13.8305C83.7613 13.6331 83.3586 13.6331 83.2579 13.6331C83.0566 13.6331 82.8553 13.6331 82.654 13.6331C82.5533 12.3498 82.5533 11.0665 82.5533 9.78326C82.5533 8.99355 79.7347 9.48712 79.7347 10.573C79.7347 12.3498 79.7347 14.1266 79.936 15.8048C79.8354 15.8048 79.7347 15.8048 79.634 15.8048C79.634 15.3112 79.634 14.8176 79.634 14.3241C79.634 13.3369 78.3254 13.1395 77.5201 13.5344C77.8221 13.2382 78.0234 12.9421 77.9227 12.5472C77.5201 11.1652 77.1174 9.78326 76.9161 8.30256C76.7148 6.92057 73.8962 7.61157 74.0975 9.09227C74.2988 10.573 74.7015 11.9549 75.1041 13.3369C75.3055 14.1266 76.4128 14.2254 77.2181 13.8305C77.0168 14.0279 76.8154 14.3241 76.8154 14.6202C76.8154 14.8176 76.8154 15.0151 76.8154 15.2125C76.5135 14.9163 76.3121 14.9163 75.9095 14.9163C74.8022 14.9163 74.1982 15.8048 74.5002 16.397C74.2988 16.397 74.1982 16.2983 73.9968 16.2983C73.5942 15.1138 73.2922 13.8305 73.2922 12.5472C73.2922 11.6588 71.9836 11.5601 71.1783 11.8562C71.1783 11.7575 71.1783 11.7575 71.1783 11.6588C70.7756 10.8691 70.5743 9.98068 70.3729 9.19098C70.071 7.90771 67.1517 8.5987 67.5543 9.98068C67.7557 10.573 67.8563 11.264 68.0577 11.8562C68.0577 11.8562 68.0577 11.8562 67.957 11.8562C67.655 11.9549 67.353 12.0537 67.051 12.2511C66.2457 12.3498 65.2391 12.8434 65.2391 13.4356C65.3397 13.9292 65.3397 14.4228 65.4404 14.8176C65.0377 14.9163 64.4338 14.9163 63.9304 15.0151C63.6285 14.2254 63.4271 13.4356 63.3265 12.6459C63.2258 11.7575 61.7158 11.7575 61.0112 12.3498C60.2059 10.2768 59.1992 8.40127 57.8906 6.62443C55.1727 3.26819 50.6428 2.08363 46.5156 2.97205C44.6029 3.3669 42.791 4.1566 41.4824 5.53859C40.2744 6.92057 40.0731 8.5987 40.2744 10.2768C40.4757 11.7575 40.8784 14.2254 41.885 16.1996C41.4824 16.1996 41.1804 16.1996 40.979 16.2983C40.677 16.397 40.3751 16.4958 40.1737 16.6932C38.2611 16.6932 36.2478 16.6932 34.3352 16.5945C30.1073 16.397 25.9801 15.7061 21.7522 15.9035C20.8462 15.9035 20.2422 16.5945 20.2422 17.1867C19.2356 17.6803 18.531 18.47 18.1283 19.4572C16.417 18.3713 14.6051 17.1867 12.7931 16.2983C12.0885 15.9035 9.47119 16.9893 10.4778 17.4829C12.2898 18.3713 14.1017 19.5559 15.813 20.6417C16.3163 20.9378 17.1217 20.7404 17.625 20.543C17.625 20.543 17.7256 20.543 17.8263 20.4443C17.5243 21.8263 17.625 23.5044 18.0276 24.8864C18.0276 24.9851 18.1283 25.0838 18.229 25.1825C18.229 25.4787 18.229 25.8735 18.229 26.1697C18.229 26.2684 18.229 26.2684 18.229 26.3671C17.8263 26.5645 17.5243 26.8606 17.4236 27.1568C17.2223 28.5388 17.1217 29.9208 17.1217 31.3027C16.8197 31.5002 16.6183 31.7963 16.6183 32.0924C16.417 35.35 16.6183 38.7062 17.1217 41.9638C17.323 44.629 17.8263 47.1956 18.3296 49.8608C18.4303 50.2557 18.4303 50.6505 18.531 51.1441C18.229 52.2299 18.1283 53.5132 18.3296 54.5991C17.4236 54.7965 16.6183 55.4875 17.1217 56.1785C17.927 57.363 18.7323 58.1527 19.7389 58.745C19.1349 58.6463 18.3296 58.8437 17.8263 59.3373C17.021 60.127 16.115 60.818 15.3097 61.6077C14.907 62.0025 15.0077 62.4961 15.6117 62.6935C16.3163 62.891 17.1217 62.5948 17.625 62.2C18.4303 61.4103 19.3363 60.7193 20.1416 59.9296C20.3429 59.7321 20.4436 59.436 20.3429 59.2386C23.5642 60.9167 27.5907 60.5218 31.5166 60.127C30.6106 61.7064 30.0067 63.3845 29.302 65.0627C29 65.7536 31.8186 65.4575 32.1206 64.6678C32.7246 62.9897 33.3286 61.4103 34.2345 59.8309C37.9591 59.9296 41.7844 59.9296 45.5089 59.9296C45.6096 60.127 45.9116 60.2257 46.2136 60.2257C49.5355 60.5219 52.7567 60.127 55.978 59.5347C60.8099 59.3373 65.6417 59.0411 70.4736 58.745C78.0234 58.5476 85.6739 58.4489 93.2237 58.4489C93.3243 58.5476 93.425 58.6463 93.5257 58.745C93.8277 59.0411 94.1297 59.0411 94.5323 59.0411C94.633 59.0411 94.633 59.0411 94.7336 59.0411C95.4383 59.0411 96.1429 59.1399 96.8476 59.1399C97.0489 59.1399 97.1496 59.2386 97.4516 59.1399C98.2569 59.2386 99.0622 59.2386 99.7668 59.3373C99.9682 59.5347 100.27 59.6334 100.572 59.7321C104.397 60.0283 108.223 60.2257 112.048 60.4231C112.149 60.6206 112.551 60.7193 112.853 60.7193C120 60.818 128.255 63.4832 134.597 59.0411C135.1 58.6463 134.899 58.1527 134.295 58.054C134.194 58.054 134.093 58.054 133.993 58.054C135.201 55.29 136.207 52.5261 136.912 49.5647C137.315 49.3673 137.516 49.0711 137.516 48.6763C137.516 47.4917 137.717 46.3071 137.919 45.1226C138.12 44.2342 138.221 43.3457 138.321 42.4573C138.724 40.2856 139.126 38.1139 139.328 36.041C141.643 34.9551 143.858 33.7706 145.972 32.2899C147.582 31.1053 145.166 30.4143 144.16 31.1053ZM88.3918 16.2983L88.2911 16.397C88.3918 16.1009 88.3918 15.8048 88.4925 15.5086H88.5931C88.5931 15.7061 88.4925 16.0022 88.3918 16.2983Z" fill="black"/>
        <path class="site-logo__background" d="M63.729 12.5468C63.8297 12.7442 64.333 12.7442 64.5343 12.7442C64.937 12.7442 65.3396 12.6455 65.6416 12.5468C66.0443 12.3494 66.7489 11.9545 66.4469 11.461C66.0443 10.8687 65.8429 10.2764 65.4403 9.68411C65.3396 9.48669 64.8363 9.48669 64.635 9.48669C64.2323 9.48669 63.8296 9.5854 63.5277 9.68411C63.125 9.88154 62.4204 10.2764 62.7223 10.77C63.0243 11.3622 63.3263 12.0532 63.729 12.5468Z" fill="black"/>
        <path class="site-logo__background" d="M20.8461 10.8691C21.0474 11.4613 21.9534 11.4613 22.4567 11.3626C22.96 11.2639 23.866 10.7703 23.6647 10.0793C23.4634 9.48707 23.262 8.79608 22.7587 8.30251C22.2554 7.80894 21.4501 7.90766 20.8461 8.10508C20.4434 8.30251 19.6381 8.89479 20.1414 9.38835C20.5441 9.98063 20.6448 10.2768 20.8461 10.8691Z" fill="black"/>
        <path class="site-logo__background" d="M30.9124 13.8306C31.7177 13.8306 34.033 12.5474 32.1204 12.5474C31.2144 12.5474 28.9998 13.8306 30.9124 13.8306Z" fill="black"/>
        <path class="site-logo__background" d="M123.423 12.2512C123.725 12.3499 124.128 12.2512 124.53 12.1525C124.832 12.0538 125.235 11.9551 125.436 11.659C125.839 11.2641 126.141 10.968 126.443 10.4744C126.544 10.277 126.644 10.0795 126.443 9.88212C126.242 9.68469 125.94 9.68469 125.638 9.58598C125.235 9.58598 124.832 9.68469 124.53 9.78341C124.228 9.88212 123.926 10.0795 123.725 10.3757C123.624 10.5731 123.524 10.7705 123.322 10.8693C123.222 10.968 123.222 10.968 123.121 11.0667C122.92 11.2641 122.819 11.4615 122.819 11.659C122.92 12.0538 123.121 12.1525 123.423 12.2512Z" fill="black"/>
        <path class="site-logo__background" d="M136.811 17.5816C137.415 17.4828 138.22 17.3841 138.724 16.8906C140.032 15.8047 141.341 14.7189 142.347 13.3369C142.649 12.942 141.341 13.1395 141.24 13.1395C140.737 13.2382 139.932 13.4356 139.529 13.8305C138.623 15.1137 137.314 16.1009 136.106 17.1867C135.603 17.5816 136.509 17.5816 136.811 17.5816Z" fill="black"/>
        <path class="site-logo__background" d="M147.682 44.3332C146.072 44.3332 144.461 44.3332 142.75 44.3332C142.146 44.3332 141.24 44.8268 141.139 45.4191C141.039 46.1101 141.945 46.3075 142.448 46.3075C144.059 46.3075 145.669 46.3075 147.38 46.3075C147.984 46.3075 148.89 45.8139 148.991 45.2216C149.092 44.5307 148.286 44.3332 147.682 44.3332Z" fill="black"/>
        <path class="site-logo__background" d="M57.3874 60.1268C56.8841 60.2255 55.9781 60.423 55.7768 60.9165C55.2734 62.1998 54.7701 63.4831 54.3675 64.7663C54.1661 65.4573 56.9847 65.0625 57.1861 64.2728C57.5887 62.9895 57.9914 61.7062 58.5954 60.423C58.7967 59.9294 57.5887 60.1268 57.3874 60.1268Z" fill="black"/>
        <path class="site-logo__background" d="M62.0178 62.6935C61.7158 62.6935 61.3132 62.7922 61.0112 62.8909C60.7092 62.9896 60.3065 63.0883 60.0045 63.2858C59.9039 63.3845 59.7025 63.4832 59.7025 63.6806C59.7025 63.7793 59.7025 63.8781 59.7025 63.9768C59.7025 64.0755 59.6019 64.1742 59.6019 64.2729C59.5012 64.3716 59.5012 64.4703 59.6019 64.569C59.8032 64.6678 60.1052 64.6678 60.3065 64.6678C60.7092 64.6678 61.0112 64.569 61.4138 64.3716C61.6151 64.2729 62.0178 64.1742 62.2191 63.9768C62.3198 63.7793 62.4205 63.6806 62.5211 63.4832C62.5211 63.2858 62.5211 63.1871 62.5211 62.9896C62.5211 62.6935 62.1185 62.6935 62.0178 62.6935Z" fill="black"/>
        <path class="site-logo__background" d="M117.483 66.3456C117.081 65.6546 114.464 66.6417 114.665 67.1353C115.47 68.7147 116.577 70.1954 117.584 71.7748C117.987 72.4658 120.604 71.38 120.403 70.9851C119.396 69.4057 118.289 67.925 117.483 66.3456Z" fill="black"/>
        <path class="site-logo__background" d="M121.51 63.9767C121.208 63.3844 120.403 63.3844 119.9 63.5818C119.497 63.6805 118.39 64.1741 118.692 64.7664C119.094 65.5561 119.497 66.3458 119.9 67.0368C120.202 67.629 121.007 67.629 121.51 67.4316C121.913 67.3329 123.02 66.8393 122.718 66.2471C122.316 65.5561 121.913 64.7664 121.51 63.9767Z" fill="black"/>
        <path class="site-logo__background" d="M5.74646 42.6544C4.2365 43.0492 2.72654 43.2467 1.21658 43.6415C0.713257 43.7402 -0.0920558 44.2338 0.00860824 44.9248C0.209936 45.6158 1.11591 45.6158 1.7199 45.5171C3.22986 45.1222 4.73982 44.9248 6.24978 44.5299C6.7531 44.4312 7.55841 43.839 7.45775 43.2467C7.15576 42.5557 6.24978 42.5557 5.74646 42.6544Z" fill="black"/>
        <path class="site-logo__sign" d="M44.0996 39.6922C43.9989 37.0269 43.5963 34.3617 43.5963 31.6964C43.5963 29.5247 43.9989 27.2543 43.1936 25.1814C43.1936 24.9839 43.2943 24.6878 43.2943 24.4904C43.4956 23.4045 39.9724 23.9968 39.469 24.9839C39.167 25.2801 38.9657 25.5762 39.0664 25.9711C39.0664 26.0698 39.167 26.1685 39.167 26.2672C38.4624 29.426 37.5564 32.5848 36.5498 35.645C36.1471 36.8295 35.6438 38.0141 35.2411 39.1986C34.6372 38.1128 34.0332 37.0269 33.5299 35.8424C32.1206 32.3874 30.9126 28.9325 29.2013 25.6749C29.4026 24.1942 25.9801 24.2929 25.2754 25.6749C24.4701 27.353 24.5708 29.0312 24.8728 30.9067C25.1747 32.9797 25.2754 34.954 25.2754 37.0269C25.2754 40.9755 25.6781 44.924 25.6781 48.8725C25.2754 49.2674 25.1747 49.7609 25.5774 50.2545C25.7787 50.4519 25.9801 50.6494 26.1814 50.8468C27.0874 51.5378 29.7046 50.9455 29.7046 49.5635C29.7046 45.4176 29.4026 41.3703 29.302 37.2244C29.302 36.8295 29.302 36.4347 29.302 36.0398C29.4026 36.1385 29.4026 36.3359 29.5033 36.4347C30.1073 38.0141 30.8119 39.5935 31.7179 41.0742C32.6239 42.5549 33.0265 44.1343 33.5299 45.7137C33.3285 45.9111 33.2279 46.2073 33.3285 46.4047C33.3285 46.6021 33.4292 46.7008 33.6305 46.7995C34.2345 47.3918 35.5431 47.0957 36.1471 46.7995C36.4491 46.7008 36.7511 46.5034 36.9524 46.4047C37.2544 46.2073 37.8584 45.7137 37.6571 45.2201C37.6571 45.1214 37.5564 45.0227 37.5564 44.924C38.0597 43.6407 38.2611 42.3575 38.5631 40.9755C38.8651 39.5935 39.3684 38.2115 39.8717 36.8295C39.9724 37.4218 39.9724 38.1128 40.073 38.7051C40.2744 41.2716 40.073 43.7394 40.073 46.306C40.073 47.1944 40.1737 47.8854 40.2744 48.7738C40.375 49.07 40.677 50.5507 40.5763 50.6494C39.9724 51.2416 40.1737 51.9326 40.979 52.0313C41.885 52.2288 43.0929 51.9326 43.7976 51.3404C45.0056 50.2545 44.4016 48.4777 44.2003 47.0957C43.5963 44.7266 44.0996 42.0613 44.0996 39.6922Z" fill="white"/>
        <path class="site-logo__sign" d="M52.5556 40.384C52.4549 38.4097 51.7503 36.5342 51.7503 34.5599C51.7503 32.2895 51.9516 30.0191 51.5489 27.7487C51.4483 27.0577 47.4217 27.8474 47.5224 28.8345C47.8244 30.9075 47.7237 33.0792 47.7237 35.1522C47.7237 37.2252 48.227 39.002 48.4283 41.075C48.7303 43.148 48.3277 45.2209 48.529 47.2939C48.6297 48.281 49.3343 50.0579 48.6297 50.8476C48.227 51.3412 50.1396 51.1437 50.2403 51.1437C51.0456 51.045 52.0522 50.7489 52.5556 50.1566C53.2602 49.3669 52.7569 47.7875 52.6562 46.8003C52.4549 44.5299 52.6562 42.457 52.5556 40.384Z" fill="white"/>
        <path class="site-logo__sign" d="M69.1649 37.0275C67.051 34.2636 63.2258 36.2378 60.5078 35.4481C59.0985 35.0533 59.0985 33.1777 59.0985 32.0919C59.0985 30.7099 58.9979 29.3279 58.7965 27.9459C58.6959 26.8601 58.7965 25.8729 59.6019 25.0832C59.7025 24.9845 60.5078 24.7871 60.4072 24.7871C60.8098 24.6884 61.1118 24.6884 61.5145 24.6884C63.1251 24.5897 66.2457 24.8858 65.6417 27.1562C65.3397 28.1433 69.2656 27.5511 69.5676 26.5639C70.7756 22.0231 62.1185 22.9115 59.7025 23.5038C57.4879 24.0961 54.9713 25.3794 54.8706 27.8472C54.77 29.0318 55.1726 30.2163 55.1726 31.4009C55.2733 32.7829 54.9713 34.1649 55.4746 35.5468C56.5819 38.5082 61.1118 37.1263 63.3264 37.3237C67.2523 37.6198 66.0444 42.7529 66.145 45.2207C66.145 46.504 67.353 48.6757 66.3464 49.6628C65.7424 50.3538 64.3331 50.3538 63.5278 50.4525C62.7224 50.5512 61.3131 50.7487 60.7092 49.959C59.7025 48.577 60.8098 46.2079 60.6085 44.5297C60.4072 43.5426 56.3806 44.431 56.5819 45.5169C56.8839 48.1821 55.1726 51.6371 58.9979 52.1307C61.5145 52.4268 64.2324 51.9332 66.6483 51.2422C67.8563 50.8474 68.9636 50.2551 69.9703 49.4654C70.9769 48.577 70.6749 47.0963 70.3729 45.9117C69.6683 42.9503 71.0776 39.5941 69.1649 37.0275Z" fill="white"/>
        <path class="site-logo__sign" d="M86.7812 36.83C86.6805 33.0789 86.0765 29.3278 86.0765 25.5767C86.0765 23.6024 82.05 24.2934 82.05 25.8729C82.05 29.4265 82.5533 32.9802 82.7546 36.6326C82.7546 36.7313 82.7546 36.7313 82.7546 36.83C80.7413 36.83 78.8287 37.0274 76.8154 37.0274C77.0168 32.3879 76.2114 27.8471 76.4128 23.2076C76.4128 22.6153 72.4869 23.1089 72.3862 24.2934C72.1849 28.7355 72.9902 33.1776 72.8895 37.6197C72.7889 39.7914 72.6882 41.8644 72.5875 44.0361C72.5875 45.1219 72.7889 46.2078 72.8895 47.2936C72.9902 48.2808 73.3928 49.6627 73.0909 50.5512C72.8895 51.3409 76.7148 50.8473 77.0168 49.8602C77.5201 48.0833 76.8154 45.8129 76.6141 44.0361C76.4128 42.358 76.6141 40.5811 76.7148 38.8043C78.728 38.7056 80.842 38.5081 82.8553 38.8043C82.9559 40.1863 83.0566 41.5683 83.1573 42.9502C83.2579 44.1348 83.3586 45.2206 83.3586 46.4052C83.3586 47.3923 83.4593 48.873 83.1573 49.8602C82.352 51.9331 86.3785 51.7357 86.9825 50.255C87.6871 48.3795 87.4858 46.1091 87.3852 44.1348C87.1838 41.7657 86.7812 39.2979 86.7812 36.83Z" fill="white"/>
        <path class="site-logo__sign" d="M103.894 41.3711C102.988 38.6071 101.478 36.238 100.27 33.5728C101.277 31.5985 102.283 29.7229 103.29 27.7487C104.095 25.9718 104.8 23.8989 106.411 22.7143C107.015 22.2207 107.015 21.8259 106.109 21.7272C105.203 21.6285 103.995 21.9246 103.29 22.4182C101.78 23.6027 100.874 24.9847 100.069 26.6628C99.0622 28.7358 98.1562 30.7101 97.0489 32.6843C96.9482 32.783 96.8475 32.9805 96.8475 33.0792C96.3442 33.3753 96.0422 33.8689 96.2436 34.3625C95.4382 35.9419 94.6329 37.4226 93.727 39.002C93.425 33.474 92.7203 27.9461 92.519 22.4182C92.519 21.1349 88.4924 21.9246 88.4924 23.504C88.6938 30.3152 89.7004 37.1264 89.8011 44.0364C89.8011 44.0364 89.8011 44.0364 89.8011 44.1351C89.4991 44.4312 89.5997 44.6286 89.9017 44.7273C89.9017 46.5042 89.8011 48.1823 89.7004 49.9591C89.1971 50.7489 90.2037 51.045 90.8077 51.045H90.9084C91.613 51.045 93.5256 50.6501 93.6263 49.663C93.8276 47.59 93.9283 45.5171 93.8276 43.4441C95.4382 41.7659 96.7469 39.7917 97.9549 37.8174C98.7602 39.2981 99.4648 40.7788 99.9681 42.3582C100.874 45.1222 102.283 47.59 103.189 50.354C103.693 52.1308 107.719 51.045 107.216 49.2682C106.31 46.6029 104.901 44.0364 103.894 41.3711Z" fill="white"/>
        <path class="site-logo__sign" d="M127.852 36.7316C127.651 35.9419 126.443 35.8431 125.537 35.9419C125.537 35.6457 125.537 35.2509 125.537 34.9547C125.437 32.2895 125.336 29.6242 125.135 26.959C124.933 24.4911 123.524 23.6027 121.108 23.7014C118.692 23.8001 115.773 24.195 113.457 25.0834C110.84 26.0705 109.33 28.0448 108.827 30.7101C108.223 33.6715 109.028 36.929 109.23 39.8904C109.431 43.3453 109.33 46.899 109.33 50.354C109.33 50.9463 113.357 50.354 113.357 49.2681C113.357 46.5042 113.357 43.7402 113.357 40.9762C113.357 40.1865 113.256 39.3968 113.256 38.5084C114.665 37.9161 116.981 38.5084 118.39 38.6071C119.497 38.7058 120.605 38.4097 121.712 38.311C121.712 40.5814 121.813 42.9505 121.913 45.2209C121.913 46.4055 122.417 48.7746 121.511 49.7617C121.108 50.2553 123.021 50.0578 123.121 50.0578C123.927 49.9591 124.933 49.663 125.437 48.972C126.443 47.8862 125.94 45.2209 125.839 43.8389C125.738 41.9634 125.738 39.9891 125.738 38.1135C126.745 38.311 128.054 37.5213 127.852 36.7316ZM112.954 36.5341C112.853 35.2509 112.753 34.0663 112.652 32.783C112.451 30.4139 112.753 27.2551 114.967 25.7744C115.571 25.3795 116.679 25.4783 117.383 25.3795C118.39 25.1821 119.397 24.9847 120.303 25.577C121.511 26.3667 121.209 29.2294 121.209 30.4139C121.209 32.3882 121.41 34.3624 121.511 36.4354C120.907 36.5341 120.403 36.5341 119.799 36.5341C117.484 36.4354 115.169 36.1393 112.954 36.5341Z" fill="white"/>
        <path class="site-logo__sign" d="M49.1328 24.9843C49.6361 24.8856 50.2401 24.7869 50.6427 24.4908C50.7434 24.3921 50.8441 24.3921 50.9447 24.2933C51.4481 23.9972 51.9514 23.5036 51.6494 22.9114C51.1461 21.8255 51.2467 20.641 51.2467 19.5551C51.2467 18.568 50.2401 18.2718 49.4348 18.3705C48.7301 18.4693 47.2202 18.9628 47.2202 19.8512C47.2202 20.8384 47.1195 21.8255 47.3208 22.8126C47.3208 22.9114 47.2202 23.0101 47.2202 23.2075C47.1195 23.4049 47.2202 23.6023 47.3208 23.7998V23.8985C47.3208 23.9972 47.3208 24.0959 47.3208 24.1946C47.4215 24.3921 47.5222 24.5895 47.7235 24.6882C48.1261 24.9843 48.6295 24.9843 49.1328 24.9843Z" fill="white"/>
      </symbol>
      <symbol id="credentials-logo" width="27" height="34" viewBox="0 0 27 34" fill="inherit" xmlns="http://www.w3.org/2000/svg">
        <path d="M13.6506 0H13.5502L0 1.39589V26.0235L13.5502 34L27 26.0235V1.39589L13.6506 0ZM25.0929 12.0645L13.5502 5.28446V5.18475H13.4498L13.3494 5.08504V5.18475L1.90706 12.0645V3.09091L13.4498 1.89443L25.0929 3.09091V12.0645ZM13.4498 6.78006L24.9926 13.4604L20.4758 16.0528L13.3494 11.8651V13.261L19.2714 16.7507L18.368 17.2493L13.3494 14.2581V15.654L17.1636 17.9472L16.3606 18.4457L13.3494 16.651V18.0469L15.2565 19.1437L13.4498 20.2405L2.00744 13.5601L13.4498 6.78006ZM1.90706 15.0557L13.3494 21.8358V22.8328L5.42007 18.1466V19.5425L13.4498 24.3284V25.4252L5.42007 20.739V22.1349L13.4498 26.9208L21.5799 22.0352V16.8504L24.9926 14.8563V24.827L13.4498 31.7067L1.90706 24.9267V15.0557Z"/>
      </symbol>
      <symbol id="instagram-icon" viewBox="0 0 22 21" fill="inherit" xmlns="http://www.w3.org/2000/svg">
        <path d="M22 12.0849C22 9.70755 21.698 7.33019 21.698 5.05189C21.698 4.25944 21.5974 3.56604 21.4967 2.77359C21.3961 2.47642 21.3961 2.08019 21.2954 1.68396C20.9935 1.48585 21.0941 1.08962 20.7922 0.891511C20.3896 0.693398 19.5844 0.792453 19.0811 0.693397C18.3766 0.693397 17.7727 0.594339 17.1688 0.495283C15.2564 0.396226 13.1427 0.396228 11.1297 0.396228C9.11669 0.396228 7.10367 0.29717 5.39261 0H3.17829C3.07764 0 3.07764 0.0990589 2.97699 0.0990589C2.37308 0.0990589 1.86983 0.297171 1.36657 0.396228C1.16527 0.495284 0.963971 0.59434 0.662018 0.693397C0.561367 0.89151 0.158762 0.792455 0.0581108 1.08962C-0.143191 1.28774 0.259412 1.58491 0.0581108 1.68396V2.57547C0.259412 2.67453 0.0581131 3.16981 0.158764 3.36793V4.35849C0.158764 5.64623 0.259413 6.73585 0.259413 8.02359C0.762667 10.7972 0.662019 14.4623 0.360066 17.3349C0.561368 17.9292 0.76267 18.4245 0.863321 19.0189C1.16527 19.5142 1.16527 20.1085 1.56787 20.5047C2.07113 20.7028 2.77569 20.7028 3.48024 20.7028C3.88284 20.8019 4.1848 21 4.5874 21C7.40562 20.8019 10.1232 20.8019 13.0421 20.8019C15.7596 21 18.8798 21 21.3961 20.6038C21.5974 20.5047 21.4967 20.1085 21.5974 19.8113C21.4967 19.4151 21.7987 19.4151 21.7987 19.0189C22 16.9387 22 14.5613 22 12.0849ZM8.91539 5.9434C9.7206 5.74528 10.4252 5.64623 11.331 5.64623C12.0356 5.74528 12.6395 5.9434 13.2434 6.14151C13.344 6.33962 13.0421 6.63679 13.4447 6.83491C13.5453 6.83491 13.5453 6.8349 13.646 6.93396C14.0486 6.93396 14.4512 7.13208 14.7531 7.33019C15.2564 7.42925 15.2564 7.82547 15.8603 7.72642C15.7596 7.92453 15.7596 8.2217 15.7596 8.51887C16.0616 9.70755 16.2629 11.2925 16.0616 12.7783C15.8603 12.9764 15.8603 13.1745 15.7596 13.4717C15.4577 13.7689 15.2564 14.2642 14.9544 14.5613C14.8538 14.7594 14.6525 14.9575 14.4512 15.0566C14.3505 15.2547 14.2499 15.5519 13.9479 15.5519C13.646 15.75 13.344 15.5519 13.1427 15.4528C12.7401 15.6509 12.2369 15.75 11.9349 16.0472C11.1297 15.9481 10.3245 15.8491 9.51929 15.75C9.31799 15.6509 9.01604 15.4528 8.71409 15.4528C8.51278 15.2547 8.21083 15.0566 7.90888 14.9575C7.80823 14.8585 7.60693 14.8585 7.40563 14.7594C7.20432 14.7594 7.20432 14.5613 6.90237 14.5613C6.80172 14.1651 6.49977 13.967 6.39912 13.4717C6.19782 13.1745 6.09716 12.6792 5.89586 12.283C5.89586 10.8962 5.99651 9.60849 6.29846 8.51887C6.60042 7.92453 7.10367 7.42925 7.40563 6.83491C7.60693 6.83491 7.80823 6.73585 7.80823 6.53774C8.11018 6.63679 8.21083 6.43868 8.51278 6.43868C8.71409 6.43868 8.71409 6.14151 8.91539 5.9434ZM7.20432 3.26887C7.10367 2.9717 7.10367 2.57547 7.10367 2.17925C7.10367 1.88208 7.40563 1.88208 7.40563 1.68396C7.40563 1.58491 7.30497 1.58491 7.20432 1.58491C7.30497 1.48585 7.90888 1.48585 8.00953 1.58491C8.11018 2.08019 7.60693 2.08019 7.50628 2.2783C7.50628 2.47642 7.80823 2.2783 8.00953 2.37736C8.00953 3.26887 7.90888 3.86321 8.00953 4.55661H7.50628C7.50628 4.75472 7.70758 4.75472 8.00953 4.75472C7.90888 5.05189 8.11018 5.15094 8.11018 5.34906C7.90888 5.54717 7.40562 5.34906 7.00302 5.44811C7.00302 4.85377 7.30497 4.06132 7.20432 3.26887ZM6.49977 1.68396C6.60042 1.68396 6.60042 1.68396 6.70107 1.78302C6.90237 2.08019 6.70107 2.47642 6.60042 2.67453C6.39911 2.47642 6.60042 1.98113 6.49977 1.68396ZM6.70107 3.46698C6.60042 3.36792 6.49977 3.26887 6.49977 2.9717C6.70107 3.07075 6.70107 3.26887 6.70107 3.46698ZM6.70107 4.85377C6.60042 4.95283 6.60042 4.85377 6.60042 4.65566C6.70107 4.5566 6.70107 4.75472 6.70107 4.85377ZM6.49977 5.05189C6.70107 5.05189 6.60042 5.25 6.70107 5.25C6.70107 5.44812 6.39912 5.44811 6.29846 5.34906C6.39912 5.25 6.49977 5.15094 6.49977 5.05189ZM4.1848 3.86321C4.1848 3.76415 4.1848 3.66509 4.08414 3.66509C3.98349 2.9717 4.1848 2.2783 4.08414 1.68396C4.3861 1.48585 4.88935 1.68396 5.19131 1.58491V2.67453C5.09066 2.77359 4.99 2.77359 4.7887 2.77359C4.68805 3.07076 5.09066 2.87264 5.19131 3.07076C5.19131 3.96227 5.09066 4.85377 5.39261 5.44811C4.7887 5.34906 4.48675 5.54717 3.9835 5.54717C4.08415 4.95283 3.9835 4.16038 4.48675 3.96226C4.48675 3.86321 4.1848 3.96226 4.1848 3.86321ZM3.68154 3.86321C3.48024 3.86321 3.48024 3.36793 3.58089 3.26887C3.88284 3.26887 3.78219 3.76415 3.68154 3.86321ZM3.48024 4.85377C3.58089 4.5566 3.48024 4.5566 3.58089 4.16038C3.78219 4.16038 3.78219 4.95283 3.48024 4.85377ZM3.68154 2.77359C3.37959 2.87264 3.37959 2.47642 3.48024 2.37736C3.78219 2.37736 3.88285 2.67453 3.68154 2.77359ZM3.68154 1.68396C3.68154 1.88208 3.58089 1.88208 3.58089 1.98113C3.37959 1.98113 3.48024 1.78302 3.37959 1.78302C3.48024 1.68396 3.58089 1.68396 3.68154 1.68396ZM3.48024 5.34906C3.58089 5.34906 3.58089 5.64623 3.37959 5.54717C3.48024 5.54717 3.48024 5.44811 3.48024 5.34906ZM2.77568 1.68396C2.77568 1.98113 2.37308 1.98113 2.37308 1.68396H2.77568ZM1.76918 1.78302C1.76918 1.98113 1.46723 1.98113 1.36657 2.17925C1.16527 1.98113 1.46722 1.68396 1.76918 1.78302ZM1.36657 2.47641C1.56788 2.2783 1.86983 2.08019 2.07113 1.88208C2.07113 1.78302 2.17178 1.78302 2.17178 1.68396H2.37308C2.47373 2.08019 2.07113 1.98113 2.07113 2.17925C2.07113 2.2783 1.97048 2.2783 1.97048 2.37736C1.97048 2.67453 2.07113 2.9717 2.07113 3.36793C1.76918 3.36793 1.76918 3.6651 1.46722 3.56604C1.46722 3.16981 1.26592 2.9717 1.36657 2.47641ZM1.46722 5.74529V4.16038C1.66853 3.96226 1.86983 3.76415 2.07113 3.66509C2.37308 4.16038 2.27243 5.05189 2.57438 5.54717C2.17178 5.64623 1.76918 5.64623 1.46722 5.74529ZM19.7857 16.7406C19.685 17.7311 19.5844 18.7217 19.3831 19.5142C16.4642 19.6132 13.344 19.5141 10.4252 19.7123C10.2239 19.7123 10.1232 19.7123 10.2238 19.5142C9.9219 19.5142 9.9219 19.7123 9.72059 19.7123C9.9219 19.4151 10.1232 18.8207 9.9219 18.4245C9.11669 18.4245 9.11669 19.217 8.81474 19.7123C8.11018 19.6132 7.70758 19.8113 7.00302 19.8113C7.20432 19.1179 7.70758 18.8208 7.90888 18.1274C7.50628 17.6321 6.90237 18.2264 6.70107 18.6226C6.49977 19.1179 6.09716 19.4151 5.89586 19.9104H4.88935C5.09066 19.4151 5.39261 19.0189 5.69456 18.5236C5.89586 18.0283 6.29847 17.8302 6.39912 17.1368C6.19782 16.8396 5.99651 17.1368 5.69456 17.1368C5.59391 17.3349 5.39261 17.434 5.29196 17.6321C5.09065 18.0283 4.7887 18.3255 4.5874 18.7217C4.3861 18.9198 4.28545 18.7217 4.08414 18.9198C3.68154 19.217 3.48024 19.6132 3.07764 19.9104C2.87633 19.8113 3.07764 19.5142 3.27894 19.5142C3.27894 19.316 3.17829 19.0189 3.37959 18.9198C3.48024 18.5236 3.58089 18.3255 3.78219 18.0283C3.88284 17.3349 4.28545 16.8396 4.48675 16.1462C3.88284 16.2453 3.78219 16.7406 3.48024 17.1368C3.27894 17.533 2.97699 17.9292 2.77568 18.4245C2.57438 18.3255 2.77569 17.8302 2.67503 17.6321C2.77569 17.0377 2.97699 16.5424 3.07764 15.9481C3.17829 15.75 3.27894 15.4528 3.27894 15.1557C3.48024 14.9575 3.27894 14.5613 3.17829 14.3632C2.97699 14.3632 2.77569 14.4623 2.67503 14.6604C2.47373 14.6604 2.47373 15.1557 2.37308 14.9575C2.37308 12.3821 1.86983 10.2028 1.86983 7.62736C1.86983 7.33019 1.66853 7.23113 1.66853 6.93396C3.27894 6.93396 4.7887 7.03302 6.49977 7.13207C6.39912 7.23113 6.29847 7.42925 6.19781 7.5283C6.09716 7.62736 5.99651 7.72642 5.79521 7.82547C5.1913 9.50943 4.7887 11.7877 5.19131 13.967C5.39261 14.5613 5.79521 14.9575 6.19781 15.3538C7.10367 15.8491 7.80823 16.4434 8.71409 17.0377C10.4252 17.434 12.5388 17.434 14.2499 17.0377C14.4512 16.9387 14.7531 16.8396 14.9544 16.6415C16.3636 15.4528 17.7727 14.1651 17.974 11.7877V10.4009C17.7727 8.81604 17.2694 7.5283 16.2629 6.83491C16.5648 6.63679 17.3701 6.8349 17.974 6.93396C18.1753 6.93396 18.3766 6.93396 18.6785 6.93396C19.0811 6.93396 19.5844 6.8349 20.0876 6.93396C20.1883 7.13207 20.1883 7.42925 20.2889 7.72642C20.1883 9.41038 20.0876 10.9953 20.0876 12.7783C20.1883 13.2736 20.1883 13.7689 20.2889 14.1651C20.0876 14.9575 19.987 15.8491 19.7857 16.7406ZM20.1883 5.64623C19.5844 5.54717 18.9805 5.34906 18.2759 5.25C18.3766 4.95283 19.0811 5.25 19.2824 5.05189C19.685 4.85378 19.5844 4.16038 19.5844 3.56604C19.5844 3.26887 19.685 2.9717 19.685 2.47641C19.2824 1.48585 17.8733 2.08019 16.7661 1.98113C16.5648 2.67453 16.2629 3.76415 16.4642 4.65566C16.6655 5.15094 17.4707 4.95283 17.974 5.15094C17.8733 5.44811 17.2694 5.25 16.9675 5.25C16.6655 5.15095 16.2629 5.15094 15.9609 5.05189C13.646 5.15094 11.633 5.05189 9.41864 5.25C9.51929 4.06132 9.51929 2.77359 9.31799 1.68396H12.4382C12.1362 2.08019 11.5323 2.17924 11.1297 2.47641C10.7271 2.67453 10.2238 2.9717 10.0225 3.36793C10.2238 3.46698 10.5258 3.16981 10.8278 2.9717C11.2304 2.87264 11.331 2.57547 11.633 2.47641C12.0356 2.08019 12.7401 1.88208 13.344 1.58491C13.7466 1.58491 14.0486 1.58491 14.3505 1.68396C15.659 1.68396 16.8668 1.78302 18.1753 1.78302C18.7792 1.88208 19.685 1.88208 20.1883 2.08019C20.2889 2.37736 20.3896 2.67453 20.4902 2.9717C20.3896 3.96226 20.1883 4.75472 20.1883 5.64623ZM14.2499 1.98113C14.3505 1.88208 14.2499 1.88208 14.2499 1.98113V1.98113ZM14.2499 1.98113C13.7466 2.17924 13.2434 2.2783 12.8408 2.67453C13.344 2.47642 13.9479 2.37736 14.2499 1.98113ZM15.357 2.57547C15.4577 2.47642 15.357 2.47642 15.357 2.57547V2.57547ZM13.5453 3.46698C14.2499 3.26887 14.7531 2.87264 15.2564 2.57547C14.8538 2.57547 14.6525 2.87264 14.2499 2.9717C14.1492 3.16981 13.7466 3.16981 13.5453 3.46698ZM12.8408 2.67453C12.7401 2.67453 12.9414 2.77359 12.8408 2.67453V2.67453ZM12.2369 3.26887C12.3375 3.16981 12.2369 3.16981 12.2369 3.26887V3.26887ZM12.1362 3.36793C12.2369 3.36793 12.2369 3.26887 12.1362 3.36793C12.1362 3.26887 12.1362 3.26887 12.1362 3.36793ZM12.0356 3.36793C12.1362 3.36793 12.1362 3.36793 12.0356 3.36793C12.0356 3.26887 12.0356 3.36793 12.0356 3.36793ZM11.2304 3.96226C11.5323 3.86321 11.8343 3.6651 12.0356 3.36793C11.7336 3.56604 11.4317 3.76415 11.2304 3.96226ZM13.5453 4.95283C14.0486 4.95283 14.2499 4.5566 14.7531 4.45755C15.0551 4.16038 15.5583 4.06132 15.7596 3.66509C15.1557 3.66509 14.9544 4.06132 14.5518 4.16038C14.2499 4.5566 13.7466 4.65566 13.5453 4.95283ZM11.2304 3.96226C10.9284 3.96226 11.2304 4.25943 11.2304 3.96226V3.96226ZM10.6265 4.35849C10.7271 4.35849 10.8278 4.35849 10.6265 4.35849C10.7271 4.25943 10.6265 4.35849 10.6265 4.35849ZM13.5453 4.95283C13.344 5.05189 13.5453 5.05189 13.5453 4.95283V4.95283ZM12.3375 6.73585C12.1362 6.53774 11.633 6.53774 11.331 6.33962C10.6265 6.33962 10.1232 6.43868 9.61994 6.53774C9.31799 6.73585 9.01604 6.83491 8.71409 7.03302C8.41213 7.23113 8.31148 7.42925 7.90888 7.5283C7.70758 7.72642 7.50628 8.02358 7.20432 8.12264C7.20432 8.32075 7.00302 8.41981 6.90237 8.51887C6.80172 8.61792 6.80172 8.81604 6.70107 8.91509C6.70107 9.01415 6.70107 9.21227 6.60042 9.21227C6.70107 10.6981 6.90237 12.0849 7.30497 13.3726C7.60693 13.967 8.31148 14.1651 8.71409 14.6604C9.31799 14.9575 10.0225 15.0566 10.8278 15.1557C11.1297 15.0566 11.4317 15.0566 11.7336 15.0566C12.9414 14.8585 13.8473 14.3632 14.5518 13.6698C14.6525 13.3726 14.8538 13.1745 15.0551 12.9764C14.7531 12.283 15.357 11.8868 15.5583 11.3915C15.5583 10.1038 15.357 8.91509 14.9544 8.02359C14.6525 7.42925 14.0486 7.23113 13.5453 6.93396C13.4447 6.93396 13.344 6.93396 13.344 6.83491C13.1427 6.73585 12.6395 6.63679 12.3375 6.73585ZM8.91539 11.0943C8.81474 10.9953 8.81474 10.8962 8.71409 10.6981C9.01604 10.5991 8.91539 10.8962 8.91539 11.0943ZM9.01604 11.3915C9.01604 11.2925 9.11669 11.3915 9.01604 11.3915C9.01604 11.5896 9.01604 11.4906 9.01604 11.3915ZM9.41864 9.31132C9.41864 9.21226 9.51929 9.31132 9.41864 9.31132C9.51929 9.41038 9.41864 9.41038 9.41864 9.31132ZM11.1297 7.23113C10.9284 7.5283 11.1297 7.82547 11.2304 8.02359C10.9284 8.02359 10.6265 7.23113 11.1297 7.23113ZM11.5323 11.0943C11.4317 11.0943 11.5323 11.0943 11.5323 11.0943C11.633 11.0943 11.5323 11.1934 11.5323 11.0943ZM12.2369 13.967C12.2369 13.8679 12.3375 13.967 12.4382 13.967C12.4382 14.066 12.2369 14.066 12.2369 13.967ZM14.4512 11.4906C14.2499 11.3915 14.3505 11.6887 14.0486 11.6887C14.1492 11.4906 14.1492 11.3915 14.2499 11.1934C14.4512 11.1934 14.5518 11.2924 14.4512 11.4906ZM13.344 7.72642C13.5453 7.82547 13.7466 7.92453 13.9479 8.12264C14.0486 8.32075 14.1492 8.51887 14.3505 8.61792C14.4512 9.41038 14.5518 10.1038 14.5518 10.9953C14.2499 11.0943 14.1492 11.2925 13.8473 11.3915C13.0421 11.3915 12.4382 11.1934 11.9349 10.8962C11.7336 10.5991 11.5323 10.4009 11.4317 10.1038V9.01415C11.633 8.81604 11.7336 8.61792 11.9349 8.41981C12.1362 8.32075 12.4382 8.2217 12.4382 7.82547C12.4382 7.72642 12.3375 7.72641 12.3375 7.62736C12.5388 7.62736 12.5388 7.82547 12.7401 7.82547C12.9414 7.82547 13.0421 7.62736 13.344 7.72642Z"/>
      </symbol>

      <symbol id="facebook-icon" viewBox="0 0 15 28" fill="inherit" xmlns="http://www.w3.org/2000/svg">
        <path d="M11.7035 5.25484C12.7024 5.25484 13.7014 5.25484 14.4006 4.95313C14.8002 4.14856 15 3.04228 15 1.936C14.8002 1.936 14.9001 1.63428 14.8002 1.53371C14.8002 1.33257 14.5005 1.33257 14.5005 1.13142C14.2009 0.930282 14.0011 0.729141 13.8013 0.527999C13.102 0.326857 12.4028 0.226286 11.6036 0.0251435C10.8045 0.0251435 9.70565 -0.0754291 9.00639 0.125713C6.40916 0.125713 5.01066 1.232 3.71204 2.53942C3.71204 2.63999 3.71204 2.74056 3.61215 2.74056C3.01278 4.3497 3.51225 6.36112 3.41236 8.37254C3.51225 8.77483 3.51225 9.37826 3.61215 9.78054C2.61321 10.0823 1.41449 10.1828 0.21577 10.2834C-0.08391 10.5851 0.0159827 11.3897 0.0159827 11.9931C0.115876 12.5965 0.315665 13.0994 0.415558 13.6022C0.615345 13.8034 1.01492 14.0045 1.2147 14.1051C1.3146 14.1051 1.3146 14.2057 1.3146 14.2057C1.81406 14.5074 2.813 14.2057 3.61215 14.3062C3.51225 16.3177 3.91183 18.2285 3.61215 20.0388C3.61215 20.3405 3.91183 20.4411 3.81193 20.8434C3.81193 21.8491 3.71204 22.8548 4.01172 23.5588C3.71204 24.0616 3.51225 24.5645 3.61215 25.3691C3.71204 25.3691 3.71204 25.5702 3.71204 25.6708C3.61215 26.1736 4.3114 25.8719 4.21151 26.3748C4.4113 26.8776 3.81193 26.5759 3.81193 26.8776V27.7828C4.3114 28.0845 5.31033 27.9839 6.10948 27.9839C7.00852 27.5816 8.30714 27.4811 8.9065 26.7771C9.40597 26.9782 9.80554 26.7771 10.1052 26.5759C10.1052 26.2742 10.4049 26.2742 10.305 25.8719C10.305 25.5702 10.1052 25.3691 10.2051 24.9668V22.0502C10.0053 19.7371 10.2051 17.1222 9.90544 14.8091C10.8045 14.7085 11.8034 14.7085 12.5027 14.4068C12.9022 13.904 12.9022 13.2 13.0021 12.496C13.2019 12.2948 13.2019 11.8925 13.2019 11.4902C13.4017 11.2891 13.3018 10.7863 13.3018 10.384C13.2019 9.78054 13.102 9.07654 12.5027 8.97597C11.6036 8.77483 10.5048 9.5794 9.50586 9.27769C9.50586 8.1714 9.20618 6.96455 9.50586 5.85827C10.305 5.65712 11.0043 5.45598 11.7035 5.25484ZM7.90757 10.0823C8.00746 10.384 8.20725 10.5851 8.30714 10.7863C8.40704 10.7863 8.50693 10.7863 8.50693 10.8868C9.70565 10.9874 10.7046 10.7863 11.6036 10.5851C11.6036 11.5908 11.3039 12.2948 11.1042 13.0994C10.4049 13.0994 9.60575 13.4011 9.10629 13.3005C8.80661 13.5017 8.70671 13.8034 8.50693 14.0045C8.50693 14.4068 8.60682 14.5074 8.50693 14.8091C8.30714 14.9097 8.40704 15.4125 8.30714 15.6137V17.1222C8.40704 17.4239 8.20724 17.4239 8.20724 17.6251V21.1451C8.10735 21.4468 8.30714 21.4468 8.30714 21.6479V24.6651C8.40704 24.9668 8.20725 25.4696 8.40703 25.5702C8.30714 25.9725 8.00746 25.5702 7.60788 25.6708C7.10842 25.7713 6.70884 26.0731 6.10948 26.0731C6.20938 25.6708 6.40916 25.4696 6.40916 24.9668C6.40916 24.5645 6.00959 24.6651 5.9097 24.4639C6.10948 23.8605 6.50906 23.3576 6.60895 22.6536C6.80874 22.1508 7.30821 21.3462 6.90863 20.8434C6.40916 20.7428 6.40916 21.1451 6.10948 21.2456C6.10948 21.3462 6.10948 21.4468 6.00959 21.4468C6.00959 21.5474 6.00959 21.6479 5.9097 21.6479C5.9097 21.7485 5.70991 21.7485 5.9097 21.6479C5.9097 21.5474 5.9097 21.4468 6.00959 21.4468C6.00959 21.3462 6.00959 21.2456 6.10948 21.2456V20.9439C6.50906 20.3405 6.80874 19.7371 6.90863 18.9325C7.10842 18.6308 7.20831 18.2285 7.3082 17.9268C7.50799 17.6251 7.60789 17.0217 7.4081 16.7199C6.90863 16.7199 6.60895 17.0217 6.50906 17.4239C6.20938 17.2228 6.70884 17.0217 6.60895 16.7199C6.70884 16.5188 6.80874 16.1165 6.90863 15.9154C7.10842 15.5131 7.50799 14.6079 6.90863 14.3062C6.50906 14.3062 6.30927 14.5074 6.20938 14.8091C6.00959 15.0102 5.8098 15.2114 5.70991 15.5131C5.31034 15.4125 5.61002 14.8091 5.51012 14.4068C5.41023 13.904 5.61002 13.5017 5.51012 13.2C4.91076 12.3954 3.51225 13.0994 2.31353 12.8982C2.21364 12.5965 2.11375 11.8925 2.21364 11.6914C3.21257 11.5908 4.71098 11.8925 5.41023 11.4902C5.41023 11.3897 5.41023 11.2891 5.51012 11.2891C5.61002 10.5851 5.21044 10.2834 5.01066 9.88111C5.21044 9.07654 5.01065 7.86969 5.11055 6.86398C5.31033 6.76341 5.41023 6.46169 5.61001 6.26055C5.70991 5.25484 6.30927 4.75199 6.30927 3.74627C6.00959 3.74627 5.70991 3.6457 5.70991 3.94742C5.41023 3.84685 5.31034 4.45027 5.21044 4.14856C5.11055 3.6457 5.41023 3.54513 5.51012 3.14285C6.10948 2.74056 6.70885 2.33828 7.4081 1.936C9.10629 1.73485 12.0032 1.53371 13.5016 2.13714C13.6015 2.74056 13.2019 3.04227 13.3018 3.6457H11.8034C10.7046 3.84684 9.80554 4.3497 8.80661 4.65141C8.60682 4.75198 8.50693 4.95313 8.30714 5.0537C8.30714 5.45598 8.10735 5.65712 8.00746 6.05941C7.70778 7.4674 7.90757 8.67426 7.90757 10.0823Z"/>
      </symbol>

      <symbol id="twitter-icon" viewBox="0 0 23 20" fill="inherit" xmlns="http://www.w3.org/2000/svg">
        <path d="M22.9571 4.24243C22.7628 3.83838 22.0826 3.93939 21.5968 3.83838H20.5279C20.6251 3.43434 20.8194 3.23232 21.0138 2.82828C21.1109 2.42424 21.3053 2.12121 21.2081 1.51515C21.3053 1.31313 21.4024 1.11111 21.4996 0.909089C21.5968 0.808079 21.694 0.404041 21.5968 0.202021C21.4996 7.67636e-07 21.3053 0 21.0138 0C20.9166 0 20.8194 0.101009 20.8194 0.101009C20.4308 0.505049 20.0421 1.11111 19.5562 1.51515H19.4591C19.3619 1.51515 19.4591 1.51515 19.3619 1.61616C19.2647 1.71717 19.0704 1.81818 18.9732 1.81818C18.6817 2.0202 18.4874 2.22222 18.0987 2.32323C17.6129 2.12121 16.9327 2.0202 16.2525 1.91919C15.0865 2.0202 14.0176 2.12121 13.3374 2.62626C12.4629 2.92929 11.8799 3.63636 11.2969 4.24243C11.2969 4.54546 11.0054 4.64646 10.9082 4.94949C10.9082 4.94949 10.9082 5.05051 10.811 5.05051C10.811 5.25253 10.7139 5.35354 10.7139 5.55556C10.7139 5.65657 10.9082 5.9596 10.7139 6.06061C9.93651 5.9596 9.25633 5.45455 8.67331 5.05051C7.99313 4.64646 7.21578 4.44444 6.63277 3.93939C5.95259 3.63636 5.36957 3.13131 4.88372 2.62626C4.68939 2.32323 4.39788 2.12121 4.20354 1.71717C3.81487 1.51515 4.00921 0.80808 3.52336 0.80808C3.23185 0.80808 3.23185 1.0101 3.13468 1.21212C3.03751 1.41414 2.74601 1.41414 2.74601 1.71717C2.74601 1.71717 2.74601 1.81818 2.64884 1.81818C2.4545 2.92929 2.16299 3.83838 2.16299 5.15151C2.26016 5.55555 2.4545 5.85858 2.74601 6.16161C2.35733 6.26263 2.06583 6.36364 1.87149 6.66667C1.77432 7.77778 2.26016 8.28283 2.55167 8.9899C2.64884 9.39394 2.94035 9.69697 3.13468 10C3.13468 10.202 3.32902 10.303 3.42619 10.404C3.42619 10.5051 3.52336 10.505 3.52336 10.6061C3.52336 10.7071 3.81487 10.8081 3.62053 10.8081C3.23185 10.9091 2.64884 10.9091 2.35733 11.2121C2.26016 11.5152 2.26016 12.0202 2.35733 12.3232C2.35733 12.5253 2.64884 12.6263 2.64884 12.8283C3.13468 13.2323 3.7177 13.5354 4.20354 13.9394C4.78656 14.1414 5.36957 14.2424 6.04975 14.3434C5.95258 14.6465 5.75825 14.9495 5.46674 15.0505C4.68939 15.4545 3.7177 15.5556 2.84318 15.7576C2.26016 15.7576 1.87149 15.9596 1.28848 15.9596C0.996969 16.0606 0.413953 16.0606 0.219615 16.1616C0.122446 16.2626 0.122445 16.2626 0.0252764 16.3636C-0.0718926 16.7677 0.122447 17.0707 0.413954 17.2727C0.413954 17.5758 0.608293 17.5758 0.802631 17.6768C0.8998 17.8788 1.09414 17.9798 1.1913 18.0808C1.67715 18.5859 2.4545 18.8889 3.03752 19.1919C3.81487 19.3939 4.59222 19.596 5.46674 19.697C6.34126 19.798 7.31295 19.798 8.18747 19.899H9.15916C9.645 20 10.3252 20 11.0054 20C11.1025 19.899 11.2969 19.899 11.4912 19.899C11.9771 19.596 12.6572 19.4949 13.0459 19.1919C13.6289 18.9899 14.0176 18.5859 14.6006 18.2828C15.4751 17.4748 16.4468 16.9697 17.0298 15.8586C17.2242 15.6566 17.4185 15.4545 17.4185 15.1515C17.71 14.9495 17.8072 14.6465 18.0015 14.4444C18.3902 14.0404 18.6817 13.5354 18.9732 13.0303C19.2647 12.5253 19.5562 11.9192 19.8477 11.4141C19.8477 11.0101 20.1393 10.9091 20.1393 10.505C20.3336 10.303 20.3336 9.79798 20.5279 9.59596C20.5279 9.29293 20.5279 9.19192 20.6251 8.9899C20.6251 7.67677 20.6251 6.56566 20.3336 5.55556C20.9166 5.35354 21.4996 5.25252 21.8883 4.94949C22.6656 5.25252 23.1515 4.84849 22.9571 4.24243ZM19.6534 8.28283C19.4591 9.19192 19.0704 9.69697 18.6817 10.303C18.7789 10.7071 18.5845 10.8081 18.5845 11.2121C18.3902 11.5152 18.293 11.9192 18.1959 12.2222C18.0015 12.5253 17.9044 12.8283 17.71 13.1313C17.3214 13.6364 16.9327 14.2424 16.544 14.7475C16.1553 15.3535 15.6695 15.7576 15.2808 16.2626C14.8921 16.7677 14.4063 17.1717 13.9204 17.5758C13.4346 17.7778 13.0459 17.9798 12.6572 18.2828C12.4629 18.3838 12.1714 18.4848 11.9771 18.5859C11.7827 18.6869 11.4912 18.6869 11.2969 18.8889C10.228 18.9899 9.06199 19.0909 7.79879 18.9899C6.8271 18.8889 5.75824 18.7879 4.88372 18.5859C4.0092 18.3838 3.42619 17.8788 2.64884 17.5758C2.84318 17.3737 3.23185 17.3737 3.62053 17.3737C3.62053 17.1717 4.00921 17.3737 4.00921 17.2727C4.30071 17.3737 4.30071 17.1717 4.49505 17.1717C5.07806 16.9697 5.66108 16.8687 6.14692 16.5657C6.43843 16.4646 6.5356 16.1616 6.8271 15.9596C6.8271 15.7576 6.92427 15.6566 7.02144 15.5556C7.02144 15.2525 7.21578 15.1515 7.11861 14.7475C7.21578 14.5455 7.41012 14.4444 7.41012 14.0404C7.31295 13.9394 7.31295 13.7374 7.11861 13.6364C7.11861 13.4343 6.72994 13.5354 6.72994 13.4343C6.43843 13.4343 6.34126 13.4343 6.14692 13.3333C5.95259 13.3333 5.66108 13.4343 5.66108 13.2323C4.88373 13.2323 4.39788 12.8283 3.81487 12.5253C4.20354 12.2222 4.78656 12.1212 5.07806 11.8182C5.56391 11.7172 6.14692 11.7172 6.14692 11.1111C6.14692 10.404 5.36957 10.404 4.88372 10.303C4.10637 9.59596 3.7177 8.58586 3.13468 7.77778C3.32902 7.57576 3.7177 7.57576 3.81487 7.37374C4.30071 7.47475 4.30071 7.07071 4.49505 6.86869C4.49505 6.36364 4.20354 6.26263 3.91203 6.06061C3.62053 5.85859 3.42619 5.55556 3.23185 5.35354C3.23185 4.54545 3.23185 3.63636 3.32902 2.92929C3.42619 2.92929 3.42619 2.92929 3.42619 3.0303C3.62053 3.43434 4.00921 3.83838 4.20354 4.24243C4.68939 4.64647 5.07806 5.15151 5.75825 5.35354C6.24409 5.75758 6.8271 5.9596 7.31295 6.36364C7.89596 6.66667 8.47898 6.9697 8.96482 7.27273C9.645 7.47475 10.0337 7.9798 10.9082 7.87879C11.1025 7.77778 11.2969 7.67677 11.4912 7.57576C11.7827 7.07071 11.394 6.46464 11.5884 5.95959C11.8799 5.25252 12.3657 4.94949 12.8516 4.44444C13.1431 4.24242 13.4346 4.14141 13.6289 3.93939C13.9204 3.83838 14.3091 3.73737 14.6006 3.53535C14.9893 3.53535 15.2808 3.43434 15.5723 3.43434H16.8355C17.0298 3.53535 17.3214 3.53535 17.5157 3.53535C17.71 3.63636 17.9044 3.83838 18.1959 3.93939C18.9732 4.64646 19.4591 5.65656 19.5562 6.9697C19.5562 7.27273 19.6534 7.67677 19.6534 8.28283ZM19.9449 2.62626C19.8477 2.92929 19.7506 3.33333 19.3619 3.43434C19.3619 3.33333 19.2647 3.33333 19.2647 3.23232C19.2647 3.0303 19.4591 3.0303 19.5562 2.92929C19.6534 2.82828 19.7506 2.62626 19.9449 2.62626C19.9449 2.52525 20.0421 2.62626 19.9449 2.62626ZM14.6006 5.65656C14.795 5.75757 14.8921 5.9596 15.0865 6.06061C15.1836 6.26263 15.378 6.36363 15.6695 6.46464C15.6695 6.26262 15.961 6.46465 16.0582 6.26263C16.2525 6.26263 16.2525 6.0606 16.3497 5.95959C16.3497 5.45454 16.2525 4.94949 15.961 4.64646C15.2808 4.14141 14.3091 4.64646 14.6006 5.65656Z"/>
      </symbol>

      <symbol id="footer-logo" viewBox="0 0 102 34" fill="inherit" xmlns="http://www.w3.org/2000/svg">
        <path d="M19.2694 21.3813C19.1691 18.6962 18.7681 16.1105 18.7681 13.4255C18.7681 11.2376 19.1691 9.04976 18.3671 6.96135C18.3671 6.76246 18.4673 6.46411 18.4673 6.26522C18.6678 5.27074 15.1589 5.76798 14.6576 6.76246C14.3569 7.0608 14.1564 7.35914 14.2566 7.75694C14.2566 7.85638 14.3569 7.95583 14.3569 8.05528C13.6551 11.2376 12.7528 14.3205 11.7503 17.4034C11.3492 18.5967 10.848 19.6907 10.4469 20.884C9.84542 19.7901 9.24389 18.6962 8.84287 17.5028C7.4393 14.1216 6.23625 10.6409 4.53192 7.35914C4.73243 5.86743 1.32377 5.96688 0.621988 7.35914C-0.180049 9.04976 -0.0797945 10.7404 0.220969 12.5304C0.521733 14.5194 0.621988 16.5083 0.621988 18.5967C0.621988 22.5746 1.02301 26.4531 1.02301 30.431C0.621988 30.8288 0.521733 31.326 0.922752 31.8233C1.12326 32.0222 1.32377 32.2211 1.52428 32.3205C2.52683 33.0167 5.13345 32.42 5.13345 31.0277C5.13345 26.9503 4.83268 22.873 4.73243 18.6962C4.73243 18.2984 4.73243 17.9006 4.73243 17.5028C4.83268 17.6023 4.83268 17.8012 4.93294 17.9006C5.53447 19.4918 6.23625 21.0829 7.13854 22.5746C8.04083 24.0664 8.44185 25.6575 8.94312 27.2487C8.74261 27.4476 8.64236 27.7459 8.74262 27.9448C8.74262 28.1437 8.84287 28.2432 9.04338 28.3426C9.64491 28.8399 10.848 28.641 11.5497 28.3426C11.8505 28.2432 12.1513 28.0443 12.3518 27.9448C12.6525 27.7459 13.2541 27.2487 13.0536 26.7514C13.0536 26.652 12.9533 26.5526 12.9533 26.4531C13.4546 25.1603 13.6551 23.8675 13.9559 22.5746C14.2566 21.1824 14.7579 19.7901 15.2592 18.4973C15.3594 19.094 15.3594 19.6907 15.4597 20.3868C15.6602 22.9724 15.4597 25.4586 15.4597 27.9448C15.4597 28.7404 15.5599 29.536 15.6602 30.431C15.7604 30.7294 16.0612 32.2211 15.9609 32.3205C15.1589 32.8178 15.3594 33.4144 16.1615 33.6133C17.0638 33.8122 18.2668 33.5139 18.9686 32.9172C20.1716 31.8233 19.5701 30.1327 19.3696 28.7404C18.8683 26.3537 19.3696 23.768 19.2694 21.3813Z"/>
        <path d="M27.6907 22.0774C27.5905 20.0884 26.8887 18.1989 26.8887 16.21C26.8887 13.9227 27.0892 11.6354 26.6882 9.34808C26.5879 8.65195 22.5777 9.44753 22.7783 10.3426C23.079 12.431 22.9788 14.5194 22.9788 16.7072C22.9788 18.6962 23.48 20.5857 23.6805 22.5746C23.9813 24.663 23.5803 26.7514 23.7808 28.7404C23.8811 29.7349 24.5828 31.4255 23.8811 32.3205C23.48 32.8177 25.3849 32.6189 25.4851 32.6189C26.2872 32.5194 27.2897 32.2211 27.791 31.6244C28.4928 30.8288 27.9915 29.2376 27.8912 28.2432C27.5905 26.2542 27.791 24.0663 27.6907 22.0774Z"/>
        <path d="M44.0323 18.7959C41.9269 16.0113 38.1172 18.0003 35.4104 17.3042C34.0068 16.9064 34.0068 15.0169 34.0068 13.9229C34.0068 12.5307 33.9065 11.2379 33.706 9.84559C33.6058 8.75166 33.706 7.75719 34.4078 6.96161C34.5081 6.86216 35.3101 6.66326 35.2099 6.66326C35.6109 6.56381 35.9116 6.56381 36.3127 6.56381C37.8165 6.46437 40.9244 6.76271 40.3228 9.05001C40.0221 10.0445 43.932 9.4478 44.2328 8.45332C45.4358 3.87873 36.9142 4.77376 34.5081 5.37044C32.3025 5.96713 29.8964 7.1605 29.6959 9.74614C29.5956 10.9395 29.9966 12.1329 29.9966 13.3263C30.0969 14.7185 29.7961 16.1108 30.2974 17.4036C31.4002 20.387 35.8114 18.9948 38.1172 19.0942C41.9269 19.3926 40.8241 24.5639 40.8241 26.9506C40.8241 28.2434 42.0272 30.3318 41.0246 31.4257C40.4231 32.1219 39.0195 32.1219 38.2175 32.2213C37.4155 32.3208 36.0119 32.5197 35.5106 31.7241C34.5081 30.3318 35.6109 27.9451 35.4104 26.3539C35.3101 25.4589 31.2999 26.2545 31.5004 27.3484C31.8012 29.934 30.0969 33.4147 33.9066 33.9119C36.3127 34.2103 39.1198 33.713 41.4256 33.0169C42.6287 32.6191 43.7315 32.1219 44.6338 31.2268C45.6363 30.3318 45.3356 28.9396 45.0348 27.7462C44.5335 24.6633 45.9371 21.2821 44.0323 18.7959Z"/>
        <path d="M61.4765 18.5964C61.3763 14.8174 60.7748 11.1378 60.7748 7.3588C60.7748 5.36985 56.7646 6.06598 56.7646 7.65715C56.7646 11.2373 57.2658 14.8174 57.4663 18.3975C57.4663 18.4969 57.4663 18.4969 57.4663 18.5964C55.5615 18.5964 53.5564 18.7953 51.5513 18.7953C51.7518 14.2207 50.9498 9.6461 51.1503 4.97206C51.1503 4.37537 47.2404 4.87261 47.2404 5.96653C47.0399 10.4417 47.8419 14.8174 47.7416 19.2925C47.6414 21.3809 47.5411 23.5688 47.4409 25.6572C47.4409 26.7511 47.6414 27.845 47.7416 28.939C47.8419 29.9334 48.2429 31.2263 47.9422 32.2207C47.7416 33.0163 51.5513 32.5191 51.8521 31.5246C52.3534 29.7345 51.6516 27.5467 51.4511 25.7566C51.2506 24.066 51.4511 22.276 51.5513 20.5854C53.5564 20.4859 55.6618 20.287 57.6669 20.5854C57.7671 21.9776 57.8674 23.3699 57.9676 24.6627C58.0679 25.8561 58.1681 26.95 58.1681 28.1434C58.1681 29.1379 58.2684 30.6296 57.9676 31.624C57.1656 33.7125 61.0755 33.5136 61.677 32.0218C62.3788 30.1323 62.1783 27.845 62.0781 25.8561C61.8776 23.3699 61.4765 20.9831 61.4765 18.5964Z"/>
        <path d="M78.4196 22.9724C77.5173 20.1879 76.0135 17.8011 74.8104 15.2155C75.8129 13.326 76.8155 11.337 77.7178 9.34806C78.5198 7.558 79.1214 5.56905 80.8257 4.27623C81.4272 3.87844 81.4272 3.3812 80.5249 3.28175C79.6226 3.1823 78.4196 3.48065 77.7178 3.97788C76.3142 5.2707 75.3117 6.66297 74.6099 8.35358C73.7076 10.442 72.7051 12.4309 71.7025 14.4199C71.6023 14.5193 71.6023 14.7182 71.502 14.8177C71.0007 15.116 70.7 15.6133 70.9005 16.1105C70.0984 17.7017 69.2964 19.1934 68.3941 20.6851C68.0933 15.2155 67.3916 9.6464 67.191 4.17678C67.191 2.88396 63.1809 3.67954 63.2811 5.17126C63.4816 12.0331 64.4842 18.7956 64.5844 25.6575C64.5844 25.6575 64.5844 25.6575 64.5844 25.7569C64.2837 26.0553 64.3839 26.2542 64.6847 26.3536C64.6847 28.1437 64.5844 29.8343 64.4842 31.6243C63.9829 32.3205 64.9854 32.7183 65.587 32.7183H65.6872C66.389 32.7183 68.2938 32.4199 68.3941 31.326C68.5946 29.2376 68.6949 27.1492 68.5946 25.0608C70.1987 23.3702 71.502 21.4807 72.7051 19.4917C73.5071 20.9834 74.2089 22.4752 74.7101 24.0663C75.6124 26.7514 77.016 29.3371 77.818 32.0221C78.3193 33.8122 82.3295 32.7183 81.728 31.0277C80.7254 28.2431 79.3219 25.7569 78.4196 22.9724Z"/>
        <path d="M101.979 18.3978C101.779 17.6022 100.576 17.6022 99.6736 17.6022C99.6736 17.3039 99.6736 16.9061 99.6736 16.6077C99.5733 13.9226 99.4731 11.2375 99.2725 8.65191C99.072 6.16572 97.6685 5.37013 95.2624 5.46958C92.8562 5.56903 90.0491 5.96682 87.7433 6.86185C85.1366 7.85633 83.6328 9.74583 83.1315 12.5304C82.6303 15.5138 83.3321 18.6961 83.5326 21.6796C83.7331 25.1602 83.6328 28.6409 83.6328 32.1216C83.6328 32.7183 87.5427 32.1216 87.5427 31.1271C87.5427 28.3426 87.5427 25.558 87.5427 22.8729C87.5427 22.0774 87.4425 21.2818 87.4425 20.4862C88.8461 19.8895 91.1519 20.4862 92.5555 20.5856C93.6583 20.6851 94.7611 20.3867 95.7636 20.2873C95.7636 22.5746 95.8639 24.8619 95.9641 27.1492C95.9641 28.3426 96.4654 30.6299 95.5631 31.6243C95.1621 32.1216 97.0669 31.9227 97.1672 31.9227C97.9692 31.8232 98.9718 31.5249 99.4731 30.9282C100.375 29.8343 99.9743 27.1492 99.8741 25.8564C99.7738 23.9669 99.7738 22.0774 99.7738 20.1878C100.877 19.9889 102.18 19.2928 101.979 18.3978ZM87.3422 18.2983C87.242 17.105 87.1417 15.8121 87.0415 14.6188C86.841 12.3315 87.1417 9.0497 89.3473 7.65743C89.9489 7.25964 91.0517 7.35909 91.7534 7.25964C92.756 7.06075 93.7585 6.86185 94.5606 7.45854C95.7636 8.25412 95.4629 11.1381 95.4629 12.3315C95.4629 14.3204 95.6634 16.3094 95.7636 18.2983C95.1621 18.3978 94.6608 18.3978 94.0593 18.3978C91.7534 18.1989 89.4476 17.8011 87.3422 18.2983Z"/>
        <path d="M24.2821 6.663C24.7833 6.56355 25.2846 6.4641 25.7859 6.16576C25.8861 6.06631 25.9864 5.96686 25.9864 5.96686C26.4877 5.66852 26.9889 5.17128 26.6882 4.57459C26.1869 3.48067 26.2871 2.38675 26.2871 1.19337C26.2871 0.198895 25.2846 0 24.4826 0C23.7808 0.0994477 22.277 0.596686 22.277 1.49172C22.277 2.48619 22.1767 3.48067 22.3772 4.47515C22.3772 4.57459 22.277 4.67404 22.277 4.87294C22.1767 5.07183 22.277 5.27073 22.3772 5.46962V5.56907C22.3772 5.66852 22.3772 5.76797 22.3772 5.86742C22.4775 6.06631 22.5777 6.26521 22.7782 6.36465C23.3798 6.663 23.881 6.663 24.2821 6.663Z"/>
      </symbol>
    </svg>
